<svg xmlns="http://www.w3.org/2000/svg" xmlns:xlink="http://www.w3.org/1999/xlink" zoomAndPan="magnify" preserveAspectRatio="xMidYMid meet" version="1.0" viewBox="114 131 142 142"><defs><clipPath id="4fa3c5c6c2"><path d="M 114 131 L 255.996094 131 L 255.996094 273 L 114 273 Z M 114 131 " clip-rule="nonzero"/></clipPath><clipPath id="0dee2589e0"><path d="M 199 178 L 255.996094 178 L 255.996094 261 L 199 261 Z M 199 178 " clip-rule="nonzero"/></clipPath></defs><g clip-path="url(#4fa3c5c6c2)"><path fill="#fff9d1" d="M 255.792969 201.875 C 255.792969 203.371094 255.746094 204.867188 255.648438 206.359375 C 255.550781 207.855469 255.410156 209.34375 255.21875 210.828125 C 255.027344 212.3125 254.789062 213.789062 254.503906 215.257812 C 254.21875 216.726562 253.890625 218.183594 253.511719 219.632812 C 253.132812 221.082031 252.710938 222.515625 252.238281 223.9375 C 251.769531 225.355469 251.257812 226.761719 250.699219 228.148438 C 250.140625 229.539062 249.535156 230.90625 248.890625 232.257812 C 248.242188 233.605469 247.554688 234.933594 246.824219 236.238281 C 246.09375 237.546875 245.320312 238.828125 244.507812 240.082031 C 243.695312 241.339844 242.84375 242.570312 241.953125 243.773438 C 241.0625 244.972656 240.132812 246.148438 239.167969 247.289062 C 238.203125 248.433594 237.203125 249.542969 236.164062 250.625 C 235.128906 251.703125 234.058594 252.75 232.957031 253.757812 C 231.851562 254.769531 230.71875 255.746094 229.554688 256.683594 C 228.386719 257.621094 227.191406 258.523438 225.96875 259.386719 C 224.746094 260.25 223.5 261.070312 222.222656 261.855469 C 220.949219 262.636719 219.648438 263.378906 218.328125 264.078125 C 217.003906 264.78125 215.660156 265.4375 214.296875 266.050781 C 212.933594 266.664062 211.550781 267.234375 210.148438 267.761719 C 208.746094 268.289062 207.332031 268.769531 205.898438 269.207031 C 204.46875 269.640625 203.023438 270.03125 201.566406 270.375 C 200.113281 270.71875 198.644531 271.015625 197.171875 271.269531 C 195.695312 271.519531 194.214844 271.722656 192.726562 271.878906 C 191.238281 272.035156 189.746094 272.140625 188.25 272.203125 C 186.753906 272.265625 185.257812 272.277344 183.761719 272.242188 C 182.265625 272.207031 180.773438 272.125 179.28125 271.996094 C 177.792969 271.867188 176.304688 271.691406 174.828125 271.464844 C 173.347656 271.242188 171.875 270.96875 170.414062 270.652344 C 168.953125 270.332031 167.5 269.96875 166.0625 269.558594 C 164.625 269.148438 163.199219 268.691406 161.789062 268.191406 C 160.378906 267.6875 158.984375 267.144531 157.609375 266.550781 C 156.234375 265.960938 154.882812 265.328125 153.546875 264.652344 C 151.238281 263.480469 149 262.183594 146.835938 260.757812 C 145.566406 259.929688 144.324219 259.058594 143.113281 258.148438 C 141.898438 257.238281 140.71875 256.289062 139.566406 255.300781 C 138.414062 254.316406 137.296875 253.292969 136.210938 252.234375 C 135.125 251.175781 134.074219 250.082031 133.0625 248.957031 C 132.046875 247.828125 131.070312 246.667969 130.128906 245.480469 C 129.191406 244.289062 128.289062 243.070312 127.429688 241.824219 C 126.566406 240.574219 125.746094 239.300781 124.96875 238 C 124.191406 236.699219 123.453125 235.371094 122.761719 234.023438 C 122.066406 232.675781 121.417969 231.304688 120.8125 229.914062 C 120.210938 228.523438 119.648438 227.117188 119.136719 225.6875 C 118.625 224.261719 118.15625 222.820312 117.734375 221.363281 C 117.316406 219.90625 116.941406 218.4375 116.617188 216.957031 C 116.289062 215.476562 116.011719 213.984375 115.785156 212.488281 C 115.554688 210.988281 115.375 209.484375 115.242188 207.972656 C 115.109375 206.460938 115.027344 204.949219 114.992188 203.433594 C 114.957031 201.917969 114.972656 200.402344 115.035156 198.886719 C 115.101562 197.371094 115.210938 195.859375 115.375 194.351562 C 115.535156 192.84375 115.746094 191.34375 116.003906 189.847656 C 116.261719 188.355469 116.566406 186.871094 116.921875 185.398438 C 117.277344 183.921875 117.675781 182.460938 118.125 181.011719 C 118.574219 179.5625 119.070312 178.132812 119.609375 176.714844 C 120.152344 175.296875 120.738281 173.902344 121.367188 172.523438 C 122 171.144531 122.675781 169.785156 123.394531 168.453125 C 124.113281 167.117188 124.875 165.804688 125.679688 164.519531 C 126.480469 163.234375 127.328125 161.976562 128.210938 160.746094 C 129.097656 159.511719 130.019531 158.3125 130.984375 157.140625 C 131.945312 155.96875 132.945312 154.828125 133.980469 153.722656 C 135.019531 152.617188 136.089844 151.542969 137.195312 150.503906 C 138.300781 149.46875 139.4375 148.464844 140.609375 147.5 C 141.777344 146.539062 142.980469 145.613281 144.207031 144.726562 C 145.4375 143.839844 146.695312 142.992188 147.980469 142.1875 C 149.265625 141.382812 150.574219 140.617188 151.910156 139.898438 C 153.242188 139.175781 154.597656 138.5 155.976562 137.867188 C 157.355469 137.234375 158.75 136.644531 160.167969 136.101562 C 161.582031 135.558594 163.015625 135.0625 164.460938 134.609375 C 165.910156 134.160156 167.371094 133.757812 168.84375 133.402344 C 170.320312 133.042969 171.800781 132.734375 173.296875 132.476562 C 174.789062 132.214844 176.292969 132.003906 177.796875 131.839844 C 179.304688 131.675781 180.816406 131.5625 182.332031 131.496094 C 183.847656 131.429688 185.363281 131.414062 186.878906 131.445312 C 188.394531 131.480469 189.90625 131.558594 191.417969 131.691406 C 192.929688 131.820312 194.433594 132 195.933594 132.226562 C 197.433594 132.453125 198.921875 132.726562 200.40625 133.050781 C 201.886719 133.375 203.355469 133.746094 204.8125 134.164062 C 206.269531 134.582031 207.714844 135.046875 209.140625 135.558594 C 210.566406 136.070312 211.976562 136.628906 213.367188 137.230469 C 214.761719 137.832031 216.132812 138.480469 217.480469 139.171875 C 218.832031 139.863281 220.15625 140.597656 221.457031 141.375 C 222.761719 142.152344 224.035156 142.96875 225.285156 143.828125 C 226.535156 144.6875 227.753906 145.585938 228.945312 146.523438 C 230.136719 147.464844 231.296875 148.4375 232.425781 149.453125 C 233.554688 150.464844 234.648438 151.511719 235.707031 152.597656 C 236.769531 153.679688 237.792969 154.796875 238.78125 155.949219 C 239.769531 157.097656 240.722656 158.277344 241.632812 159.488281 C 242.542969 160.703125 243.417969 161.941406 244.25 163.207031 C 245.082031 164.476562 245.871094 165.769531 246.621094 167.089844 C 247.367188 168.40625 248.074219 169.75 248.734375 171.113281 C 249.394531 172.476562 250.011719 173.863281 250.585938 175.265625 C 251.15625 176.671875 251.683594 178.089844 252.164062 179.53125 C 252.644531 180.96875 253.078125 182.421875 253.464844 183.886719 C 253.851562 185.351562 254.191406 186.828125 254.480469 188.316406 C 254.773438 189.804688 255.015625 191.300781 255.210938 192.804688 C 255.40625 194.308594 255.550781 195.816406 255.648438 197.332031 C 255.746094 198.84375 255.792969 200.359375 255.792969 201.875 Z M 255.792969 201.875 " fill-opacity="1" fill-rule="nonzero"/></g><path fill="#5dc7a4" d="M 181.039062 234.972656 C 179.347656 238.589844 159.34375 246.546875 156.464844 252.089844 C 154.476562 255.929688 154.429688 261.671875 153.5625 264.652344 C 151.25 263.480469 149.015625 262.183594 146.851562 260.757812 C 146.949219 257.210938 147.304688 251.875 148.507812 248.710938 C 150.445312 243.648438 154.054688 238.105469 151.886719 233.285156 C 149.722656 228.460938 147.28125 218.824219 149.683594 216.894531 C 152.085938 214.96875 158.375 208.941406 158.375 208.941406 C 158.375 208.941406 172.597656 222.371094 173.082031 225.066406 C 173.566406 227.761719 182.71875 231.355469 181.039062 234.972656 Z M 181.039062 234.972656 " fill-opacity="1" fill-rule="nonzero"/><g clip-path="url(#0dee2589e0)"><path fill="#5dc7a4" d="M 255.792969 201.875 C 255.796875 205.304688 255.554688 208.71875 255.058594 212.113281 C 254.5625 215.503906 253.820312 218.84375 252.832031 222.128906 C 251.847656 225.414062 250.625 228.609375 249.167969 231.714844 C 247.714844 234.820312 246.039062 237.804688 244.144531 240.664062 C 238.152344 244.164062 229.960938 248.855469 227.25 249.929688 C 222.835938 251.699219 220.621094 257.664062 216.199219 258.769531 C 211.777344 259.875 203.605469 261.640625 204.925781 258.769531 C 206.246094 255.898438 206.03125 251.476562 209.796875 248.601562 C 213.558594 245.730469 217.75 243.519531 213.328125 239.765625 C 208.90625 236.007812 204.925781 238 201.617188 234.234375 C 201.617188 234.234375 197.855469 228.03125 199.628906 225.058594 C 201.402344 222.085938 202.9375 214.792969 207.804688 213.242188 C 210.835938 212.257812 213.632812 210.824219 216.199219 208.941406 C 216.199219 208.941406 215.316406 197.105469 217.734375 197.550781 C 220.15625 197.996094 226.351562 195.117188 225.246094 192.023438 C 224.140625 188.929688 229.945312 183.183594 229.945312 183.183594 C 229.945312 183.183594 232.15625 186.503906 229.945312 193.566406 C 229.945312 193.566406 237.242188 189.589844 237.457031 184.730469 C 237.601562 181.65625 245.808594 179.546875 251.808594 178.417969 C 254.480469 186.007812 255.808594 193.828125 255.792969 201.875 Z M 255.792969 201.875 " fill-opacity="1" fill-rule="nonzero"/></g><path fill="#5dc7a4" d="M 235.320312 152.214844 L 222.265625 164.507812 C 222.265625 164.507812 213.414062 164.703125 208.136719 165.078125 C 202.859375 165.453125 203.046875 169.03125 200.972656 169.410156 C 198.898438 169.785156 196.265625 165.078125 197.210938 160.738281 C 198.152344 156.402344 198.144531 149.21875 196.242188 146.417969 C 194.335938 143.613281 187.402344 142.839844 183.449219 144.160156 C 179.492188 145.480469 193.816406 158.480469 190.238281 157.914062 C 186.660156 157.34375 185.898438 162.8125 185.898438 162.8125 C 185.898438 162.8125 188.554688 175.8125 187.800781 179.605469 C 187.050781 183.398438 173.886719 179.398438 168.199219 181.472656 C 162.507812 183.546875 160.066406 190.519531 158.589844 193.90625 C 157.117188 197.292969 157.824219 189.390625 156.703125 186.371094 C 155.582031 183.355469 148.792969 188.628906 146.796875 192.023438 C 144.800781 195.417969 151.804688 194.664062 151.804688 194.664062 C 151.804688 194.664062 157.269531 208.234375 153.5 211.4375 C 149.730469 214.636719 141.636719 195.792969 140.5 193.90625 C 139.363281 192.015625 141.058594 183.546875 138.609375 178.269531 C 136.429688 173.5625 134.09375 157.605469 133.613281 154.21875 C 134.414062 153.347656 135.238281 152.496094 136.082031 151.664062 C 136.925781 150.835938 137.789062 150.027344 138.675781 149.238281 C 139.5625 148.453125 140.464844 147.6875 141.390625 146.949219 C 142.316406 146.207031 143.257812 145.488281 144.21875 144.796875 C 145.175781 144.101562 146.15625 143.433594 147.148438 142.789062 C 148.144531 142.144531 149.152344 141.527344 150.179688 140.933594 C 151.203125 140.339844 152.242188 139.773438 153.296875 139.230469 C 154.351562 138.691406 155.417969 138.175781 156.496094 137.691406 C 157.578125 137.203125 158.667969 136.742188 159.773438 136.3125 C 160.875 135.878906 161.988281 135.476562 163.113281 135.101562 C 164.234375 134.726562 165.367188 134.378906 166.507812 134.058594 C 167.648438 133.742188 168.796875 133.453125 169.953125 133.191406 C 171.109375 132.933594 172.269531 132.699219 173.4375 132.5 C 174.605469 132.296875 175.777344 132.125 176.953125 131.980469 C 178.128906 131.839844 179.308594 131.726562 180.488281 131.644531 C 181.671875 131.5625 182.851562 131.507812 184.039062 131.484375 C 185.222656 131.460938 186.40625 131.46875 187.589844 131.503906 C 188.773438 131.539062 189.957031 131.605469 191.136719 131.703125 C 192.316406 131.800781 193.496094 131.925781 194.667969 132.082031 C 195.84375 132.234375 197.015625 132.421875 198.179688 132.636719 C 199.34375 132.851562 200.503906 133.09375 201.65625 133.367188 C 202.808594 133.640625 203.953125 133.941406 205.089844 134.273438 C 206.226562 134.605469 207.355469 134.964844 208.476562 135.351562 C 209.59375 135.742188 210.703125 136.15625 211.800781 136.601562 C 212.898438 137.042969 213.984375 137.515625 215.058594 138.015625 C 216.132812 138.511719 217.195312 139.039062 218.242188 139.589844 C 219.292969 140.144531 220.324219 140.722656 221.34375 141.328125 C 222.363281 141.929688 223.363281 142.5625 224.351562 143.214844 C 225.339844 143.871094 226.308594 144.550781 227.261719 145.253906 C 228.214844 145.960938 229.148438 146.6875 230.0625 147.4375 C 230.980469 148.191406 231.875 148.964844 232.753906 149.761719 C 233.628906 150.558594 234.484375 151.375 235.320312 152.214844 Z M 235.320312 152.214844 " fill-opacity="1" fill-rule="nonzero"/></svg>