<?xml version="1.0" encoding="UTF-8"?>
<svg xmlns="http://www.w3.org/2000/svg" xmlns:xlink="http://www.w3.org/1999/xlink" width="2112" height="2112" viewBox="0 0 2112 2112">
<rect x="-211.2" y="-211.2" width="2534.4" height="2534.4" fill="rgb(100%, 100%, 100%)" fill-opacity="1"/>
<path fill-rule="evenodd" fill="rgb(22.75238%, 55.271912%, 25.097656%)" fill-opacity="1" d="M 790.601562 345.058594 C 937.253906 299.378906 1133.480469 395.109375 1266.660156 631.410156 C 1357.308594 792.328125 1496.5 877.050781 1557.890625 1066.839844 C 1648.339844 1347.148438 1526.570312 1632.664062 1276.398438 1731.917969 C 924.601562 1871.242188 643.941406 1677.722656 554.539062 1378.921875 C 489.820312 1162.144531 548.9375 998.101562 550.804688 768.871094 C 552.671875 545.03125 636.472656 393.03125 790.597656 345.058594 L 790.601562 345.058594 "/>
<path fill-rule="evenodd" fill="rgb(83.59375%, 88.671875%, 46.679688%)" fill-opacity="1" d="M 806.777344 400.511719 C 941.8125 358.558594 1122.488281 446.808594 1245.289062 664.628906 C 1328.890625 812.890625 1457.078125 890.960938 1513.710938 1065.589844 C 1597.101562 1323.898438 1484.878906 1586.980469 1254.421875 1678.347656 C 930.199219 1806.875 671.527344 1628.507812 589.386719 1353.171875 C 529.648438 1153.425781 583.992188 1002.460938 585.859375 791.089844 C 587.519531 584.898438 664.683594 444.941406 806.773438 400.511719 L 806.777344 400.511719 "/>
<path fill-rule="evenodd" fill="rgb(57.617188%, 32.151794%, 23.143005%)" fill-opacity="1" d="M 985.175781 1009.320312 C 1123.949219 960.730469 1281.589844 1050.640625 1337.601562 1210.316406 C 1393.398438 1369.992188 1326.398438 1539.015625 1187.828125 1587.605469 C 1049.269531 1636.191406 891.414062 1546.285156 835.402344 1386.605469 C 779.605469 1226.925781 846.601562 1057.898438 985.171875 1009.320312 L 985.175781 1009.320312 "/>
</svg>
