<svg xmlns="http://www.w3.org/2000/svg" xmlns:xlink="http://www.w3.org/1999/xlink" zoomAndPan="magnify" preserveAspectRatio="xMidYMid meet" version="1.0" viewBox="7.83 62.37 370.49 183.9"><defs><g/></defs><path stroke-linecap="butt" transform="matrix(0.685789, -0.303633, 0.303633, 0.685789, 19.24127, 83.900781)" fill="none" stroke-linejoin="miter" d="M 96.662382 73.922388 C 97.121345 83.962571 97.384541 93.55723 97.449859 102.711128 C 97.54797 111.868152 97.302932 120.320737 96.714745 128.068881 C 96.126558 135.817025 95.026757 142.649438 93.426974 148.565573 C 91.859983 154.484834 89.636177 159.275981 86.755558 162.939013 C 83.88181 166.599391 80.184345 168.903966 75.674796 169.852194 C 70.801557 170.901413 66.913089 170.52405 64.002519 168.722758 C 61.120997 166.894455 59.148628 164.0162 58.066906 160.091194 C 57.021103 156.136522 56.773934 151.510168 57.330163 146.214238 C 57.627363 143.600355 57.802885 141.325623 57.871015 139.396367 C 57.967175 137.468128 57.658855 135.964582 56.941292 134.883619 C 56.251759 133.803674 54.848552 133.267844 52.719491 133.265043 C 50.826299 133.269839 49.073906 133.74139 47.474492 134.690784 C 45.905216 135.636434 44.660076 136.93065 43.743288 138.563908 C 42.862419 140.1675 42.456229 141.998345 42.519956 144.054333 C 43.76109 148.892926 44.531109 153.033077 44.824703 156.461045 C 45.117207 159.865746 44.777908 162.626173 43.795719 164.754505 C 42.846793 166.846301 41.082184 168.400378 38.499238 169.409865 C 35.949083 170.422478 32.351667 170.931545 27.709099 170.932303 C 24.080818 170.932154 21.058494 170.129445 18.635256 168.52683 C 16.247936 166.89455 14.320318 164.622797 12.84764 161.709461 C 11.377615 158.802996 10.10267 155.481655 9.023347 151.75707 C 7.649955 146.882704 6.686751 141.50643 6.13108 135.621375 C 5.575409 129.736321 5.245427 123.392983 5.152767 116.590817 C 5.053236 109.791304 5.002239 102.534816 5.001884 94.81659 C 5.003564 87.788481 5.216136 81.429039 5.639598 75.738264 C 6.067823 70.049597 7.015479 65.194683 8.482566 61.173522 C 9.957543 57.121678 12.278921 54.014178 15.449356 51.857891 C 18.649929 49.697861 23.052996 48.617049 28.640053 48.618654 C 32.694334 48.454264 35.897122 48.978026 38.255286 50.187286 C 40.64148 51.397563 42.372021 53.046638 43.449564 55.141381 C 44.562007 57.234488 45.219547 59.621738 45.412658 62.298914 C 45.611551 64.95017 45.561524 67.71336 45.267341 70.590594 C 45.008058 73.466192 44.675157 76.263628 44.28449 78.972832 C 43.896476 81.688907 43.646137 84.158353 43.549868 86.382735 C 43.486863 88.57058 43.746904 90.33755 44.3321 91.678884 C 44.956958 93.02069 46.114519 93.738255 47.814306 93.835796 C 49.517219 93.900545 51.987939 93.183129 55.223812 91.676678 C 56.625821 90.993035 57.412605 89.421834 57.575185 86.970492 C 57.737764 84.51915 57.66066 81.232601 57.332239 77.111391 C 57.004836 72.962151 56.77479 68.104146 56.644756 62.544246 C 57.039098 57.575361 59.048557 53.782943 62.677894 51.1691 C 66.305596 48.520357 70.883201 47.083927 76.408055 46.852937 C 81.476625 46.687639 85.448562 47.751301 88.325976 50.03916 C 91.204407 52.298991 93.264973 55.466917 94.508216 59.554573 C 95.77949 63.643247 96.50072 68.433925 96.662382 73.922388 Z M 96.662382 73.922388 " stroke="#807a52" stroke-width="15.066375" stroke-opacity="1" stroke-miterlimit="4"/><path stroke-linecap="butt" transform="matrix(0.740406, -0.119577, 0.119577, 0.740406, 104.053102, 48.362406)" fill="none" stroke-linejoin="miter" d="M 56.005445 170.095833 C 47.964371 170.100315 40.805516 168.6276 34.528051 165.68283 C 28.249596 162.711521 22.90372 158.57187 18.488764 153.27416 C 14.072977 147.981592 10.723898 141.800859 8.435556 134.736273 C 6.146384 127.676828 4.999988 120.042225 5.001512 111.833295 C 5.00238 105.196453 5.607319 98.641342 6.81633 92.167963 C 8.057021 85.694423 9.888112 79.648611 12.310431 74.025384 C 14.759961 68.364345 17.770315 63.379496 21.332038 59.064034 C 24.898904 54.749403 29.001329 51.365396 33.644455 48.912845 C 38.287421 46.428613 43.452946 45.18418 49.140198 45.184687 C 55.318086 45.185294 61.042277 46.231104 66.306801 48.326425 C 71.603676 50.384766 76.344055 53.308154 80.527107 57.101733 C 84.715301 60.896142 88.246689 65.360022 91.121271 70.493372 C 94.000995 75.627553 96.17435 81.280752 97.645647 87.458942 C 99.116785 93.605452 99.770131 100.078883 99.605684 106.879236 C 99.440508 113.194096 98.791021 119.40436 97.64528 125.51865 C 96.499538 131.632941 94.799708 137.388679 92.546621 142.780721 C 90.319082 148.145236 87.509482 152.867061 84.111018 156.95565 C 80.708084 161.006586 76.671545 164.211304 71.99626 166.568973 C 67.353487 168.92134 62.024929 170.097237 56.005445 170.095833 Z M 59.587139 113.062324 C 59.58873 104.526304 58.882466 98.086533 57.479461 93.73953 C 56.102995 89.391537 54.549806 87.019815 52.819062 86.629505 C 50.925604 86.23402 49.125853 88.296373 47.426611 92.807112 C 45.722069 97.28534 44.874412 104.101973 44.873357 113.255351 C 44.87259 119.401558 45.59184 123.996889 47.031936 127.036203 C 48.502883 130.0805 50.122253 131.650434 51.890045 131.746005 C 53.78373 131.846081 55.533112 130.324278 57.137361 127.185739 C 58.768149 124.046209 59.586179 119.340395 59.587139 113.062324 Z M 59.587139 113.062324 " stroke="#807a52" stroke-width="15.066375" stroke-opacity="1" stroke-miterlimit="4"/><path stroke-linecap="butt" transform="matrix(0.74858, 0.0461326, -0.0461326, 0.74858, 193.414211, 36.397944)" fill="none" stroke-linejoin="miter" d="M 61.696119 166.322755 C 54.14177 169.397412 46.445486 170.931007 38.597191 170.929379 C 16.200775 170.93199 5.004303 158.853021 5.002257 134.687596 C 5.000229 126.187249 5.037563 118.748993 5.098664 112.373787 C 5.164964 105.998262 5.263082 100.393071 5.392699 95.553016 C 5.527514 90.712641 5.70501 86.480167 5.935264 82.849755 C 6.163595 79.188151 6.442267 75.92003 6.76576 73.040513 C 7.094772 70.165873 7.520488 67.420948 8.042586 64.800538 C 9.251041 61.208989 10.575131 58.393045 12.015817 56.368302 C 13.487694 54.341638 15.331751 52.850386 17.559025 51.904303 C 19.812291 50.956618 22.643899 50.333348 26.043772 50.040334 C 30.881947 49.716081 34.705373 50.284061 37.520211 51.759547 C 40.363997 53.196722 42.456554 55.483798 43.792685 58.621094 C 45.168801 61.729836 46.066966 65.63511 46.493018 70.346993 C 46.918749 75.053677 47.130049 80.514562 47.131795 86.72413 C 47.130953 88.065263 47.048277 90.11068 46.883446 92.855182 C 46.721892 95.568173 46.510625 98.65994 46.249326 102.125282 C 45.988026 105.590625 45.724411 109.103075 45.464 112.667509 C 45.23478 116.230021 45.037609 119.55052 44.872168 122.623808 C 44.711924 125.696775 44.613538 128.249327 44.581885 130.275945 C 44.548311 132.271372 44.64806 133.381922 44.875934 133.607917 C 48.534154 131.749172 51.904058 130.800509 54.975569 130.767768 C 58.050035 130.698317 60.747709 131.288709 63.068269 132.533746 C 65.391784 133.742072 67.300982 135.424699 68.806257 137.580984 C 70.30961 139.706078 71.338723 142.095218 71.898475 144.742885 C 72.451106 147.359681 72.469255 150.02507 71.947725 152.739372 C 71.423952 155.417286 70.312256 157.954011 68.611997 160.339153 C 66.941006 162.691181 64.637446 164.685608 61.696119 166.322755 Z M 61.696119 166.322755 " stroke="#807a52" stroke-width="15.066375" stroke-opacity="1" stroke-miterlimit="4"/><path stroke-linecap="butt" transform="matrix(0.721471, 0.204888, -0.204888, 0.721471, 262.547008, 40.961863)" fill="none" stroke-linejoin="miter" d="M 71.798842 117.423992 C 71.797668 123.082251 71.702404 128.523588 71.504455 133.755857 C 71.307988 138.955219 70.848872 143.763542 70.130694 148.174393 C 69.410411 152.558769 68.281805 156.382319 66.746297 159.650052 C 65.212212 162.922795 63.136995 165.472098 60.517058 167.304395 C 57.903615 169.102362 54.585488 170.001349 50.562679 170.001358 C 45.987565 170.001199 42.292191 169.247678 39.477981 167.745805 C 36.700266 166.238982 34.590998 164.130843 33.153767 161.414956 C 31.744433 158.701975 30.797325 155.500385 30.311023 151.805176 C 29.852677 148.074956 29.720359 144.024749 29.916234 139.643111 C 30.113592 135.228567 30.408612 130.585959 30.801294 125.715288 C 13.604041 96.158818 5.001777 75.152483 5.004521 62.693439 C 5.001546 58.736443 6.032127 55.36846 8.091254 52.590912 C 10.184772 49.78194 12.67122 47.765567 15.544845 46.559668 C 20.125956 44.598154 23.98013 44.023393 27.120232 44.842561 C 30.293302 45.625295 32.987221 47.637786 35.212008 50.877189 C 37.469764 54.080159 39.529183 58.281538 41.395275 63.479905 C 43.256418 68.641777 45.219218 74.657308 47.278662 81.527922 C 48.586595 76.067061 49.891197 70.899518 51.198901 66.028879 C 52.540996 61.126817 54.109685 56.793876 55.911401 53.033644 C 57.739591 49.271307 60.02937 46.314557 62.772883 44.154796 C 65.519302 41.967137 68.90571 40.870087 72.928519 40.870078 C 78.093855 40.870465 82.358924 41.933243 85.728737 44.056989 C 89.127931 46.150735 91.582311 48.978423 93.081859 52.542899 C 94.5879 56.073045 95.178312 59.982331 94.850249 64.260737 C 94.557244 68.09063 93.673714 72.109881 92.202505 76.328511 C 90.764263 80.510706 88.945124 84.876872 86.755108 89.424161 C 84.565152 93.933533 82.161861 98.530561 79.547398 103.203802 C 76.965843 107.878526 74.381321 112.619063 71.798842 117.423992 Z M 71.798842 117.423992 " stroke="#807a52" stroke-width="15.066375" stroke-opacity="1" stroke-miterlimit="4"/><path stroke-linecap="butt" transform="matrix(0.66805, 0.340895, -0.340895, 0.66805, 342.886681, 66.123533)" fill="none" stroke-linejoin="miter" d="M 29.522483 123.066816 C 29.031206 114.56418 27.677491 106.27359 25.452058 98.199782 C 23.228707 90.095675 20.434998 82.031182 17.066387 74.020315 C 13.730155 65.981231 10.104383 57.856006 6.17979 49.649374 C 4.903763 46.575815 4.575321 43.732082 5.199104 41.115808 C 5.853185 38.501615 7.192401 36.210241 9.221486 34.250965 C 11.278502 32.289131 13.747033 30.801435 16.62708 29.787877 C 19.502201 28.741748 22.559147 28.281118 25.795648 28.412991 C 29.031862 28.509928 32.187546 29.297001 35.260333 30.769573 C 38.365691 32.237219 41.130721 34.527573 43.55069 37.631357 C 46.000958 40.737221 47.834625 44.777535 49.042319 49.745387 C 51.102079 56.646578 52.72407 64.133685 53.896646 72.206803 C 55.078309 80.251895 55.746527 88.459587 55.905937 96.827513 C 56.072067 105.162773 55.599932 113.20977 54.489436 120.956856 C 54.029685 124.261264 52.901067 126.953884 51.103675 129.046362 C 49.336582 131.14092 47.277735 132.594978 44.924861 133.415542 C 42.599633 134.198611 40.297277 134.361894 38.006149 133.905487 C 35.719374 133.411775 33.77682 132.286328 32.173752 130.519866 C 30.600696 128.720548 29.718486 126.235409 29.522483 123.066816 Z M 42.028814 170.000215 C 39.445624 170.002747 37.059802 169.360771 34.871446 168.085932 C 32.713102 166.778236 30.993862 165.047666 29.723006 162.889486 C 28.447225 160.698737 27.805891 158.330419 27.808285 155.779798 C 27.805466 153.16167 28.447443 150.775849 29.720201 148.617791 C 30.992958 146.459733 32.711883 144.740589 34.870063 143.469733 C 37.060812 142.193951 39.447783 141.554794 42.030973 141.552262 C 44.646829 141.55645 47.018637 142.193883 49.141758 143.466927 C 51.299816 144.739685 53.014321 146.460977 54.289816 148.616789 C 55.59561 150.774683 56.253419 153.163829 56.25387 155.777318 C 56.251477 158.327938 55.595392 160.69757 54.292622 162.888485 C 53.015225 165.04891 51.296396 166.7797 49.14087 168.090133 C 47.017627 169.360702 44.646942 169.997396 42.028814 170.000215 Z M 42.028814 170.000215 " stroke="#807a52" stroke-width="15.066375" stroke-opacity="1" stroke-miterlimit="4"/><g fill="#fff9d1" fill-opacity="1"><g transform="translate(70.858849, 200.484966)"><g><path d="M 37.125 -95.234375 C 40.476562 -88.484375 43.570312 -81.984375 46.40625 -75.734375 C 49.238281 -69.484375 51.628906 -63.609375 53.578125 -58.109375 C 55.535156 -52.617188 56.867188 -47.601562 57.578125 -43.0625 C 58.285156 -38.53125 58.207031 -34.570312 57.34375 -31.1875 C 56.476562 -27.800781 54.644531 -25.097656 51.84375 -23.078125 C 48.832031 -20.890625 46.054688 -19.972656 43.515625 -20.328125 C 40.972656 -20.679688 38.742188 -22.046875 36.828125 -24.421875 C 34.910156 -26.804688 33.332031 -29.898438 32.09375 -33.703125 C 31.5 -35.585938 30.9375 -37.203125 30.40625 -38.546875 C 29.875 -39.890625 29.203125 -40.832031 28.390625 -41.375 C 27.585938 -41.914062 26.457031 -41.863281 25 -41.21875 C 23.695312 -40.632812 22.644531 -39.773438 21.84375 -38.640625 C 21.039062 -37.503906 20.582031 -36.25 20.46875 -34.875 C 20.351562 -33.5 20.625 -32.101562 21.28125 -30.6875 C 23.59375 -27.738281 25.367188 -25.144531 26.609375 -22.90625 C 27.859375 -20.664062 28.472656 -18.664062 28.453125 -16.90625 C 28.429688 -15.15625 27.691406 -13.546875 26.234375 -12.078125 C 24.773438 -10.617188 22.457031 -9.1875 19.28125 -7.78125 C 16.789062 -6.6875 14.472656 -6.328125 12.328125 -6.703125 C 10.191406 -7.085938 8.175781 -8.046875 6.28125 -9.578125 C 4.382812 -11.117188 2.507812 -13.015625 0.65625 -15.265625 C -1.78125 -18.160156 -4.082031 -21.539062 -6.25 -25.40625 C -8.414062 -29.28125 -10.5625 -33.539062 -12.6875 -38.1875 C -14.8125 -42.832031 -17.046875 -47.796875 -19.390625 -53.078125 C -21.515625 -57.898438 -23.296875 -62.320312 -24.734375 -66.34375 C -26.179688 -70.375 -27.007812 -74 -27.21875 -77.21875 C -27.4375 -80.445312 -26.78125 -83.273438 -25.25 -85.703125 C -23.71875 -88.140625 -21.039062 -90.207031 -17.21875 -91.90625 C -14.476562 -93.257812 -12.109375 -93.882812 -10.109375 -93.78125 C -8.117188 -93.6875 -6.429688 -93.082031 -5.046875 -91.96875 C -3.671875 -90.863281 -2.507812 -89.425781 -1.5625 -87.65625 C -0.613281 -85.882812 0.195312 -83.96875 0.875 -81.90625 C 1.550781 -79.851562 2.164062 -77.835938 2.71875 -75.859375 C 3.269531 -73.890625 3.851562 -72.132812 4.46875 -70.59375 C 5.082031 -69.0625 5.800781 -67.925781 6.625 -67.1875 C 7.457031 -66.457031 8.472656 -66.320312 9.671875 -66.78125 C 10.867188 -67.238281 12.347656 -68.476562 14.109375 -70.5 C 14.847656 -71.382812 14.898438 -72.691406 14.265625 -74.421875 C 13.640625 -76.160156 12.582031 -78.394531 11.09375 -81.125 C 9.613281 -83.851562 7.992188 -87.109375 6.234375 -90.890625 C 4.992188 -94.421875 5.21875 -97.632812 6.90625 -100.53125 C 8.59375 -103.4375 11.296875 -105.804688 15.015625 -107.640625 C 18.460938 -109.296875 21.507812 -109.78125 24.15625 -109.09375 C 26.8125 -108.414062 29.191406 -106.863281 31.296875 -104.4375 C 33.398438 -102.007812 35.34375 -98.941406 37.125 -95.234375 Z M 37.125 -95.234375 "/></g></g></g><g fill="#fff9d1" fill-opacity="1"><g transform="translate(124.381138, 174.231459)"><g><path d="M 41.484375 -6.640625 C 35.523438 -5.671875 30.046875 -5.90625 25.046875 -7.34375 C 20.046875 -8.789062 15.59375 -11.210938 11.6875 -14.609375 C 7.789062 -18.003906 4.570312 -22.175781 2.03125 -27.125 C -0.5 -32.082031 -2.253906 -37.59375 -3.234375 -43.65625 C -4.023438 -48.570312 -4.351562 -53.5 -4.21875 -58.4375 C -4.082031 -63.382812 -3.453125 -68.085938 -2.328125 -72.546875 C -1.210938 -77.015625 0.40625 -81.0625 2.53125 -84.6875 C 4.664062 -88.320312 7.296875 -91.320312 10.421875 -93.6875 C 13.554688 -96.0625 17.234375 -97.585938 21.453125 -98.265625 C 26.035156 -99.003906 30.398438 -98.925781 34.546875 -98.03125 C 38.703125 -97.132812 42.554688 -95.53125 46.109375 -93.21875 C 49.671875 -90.90625 52.816406 -88.019531 55.546875 -84.5625 C 58.285156 -81.113281 60.570312 -77.191406 62.40625 -72.796875 C 64.25 -68.410156 65.515625 -63.6875 66.203125 -58.625 C 66.828125 -53.9375 67.082031 -49.257812 66.96875 -44.59375 C 66.851562 -39.9375 66.289062 -35.484375 65.28125 -31.234375 C 64.269531 -26.984375 62.75 -23.144531 60.71875 -19.71875 C 58.6875 -16.300781 56.085938 -13.445312 52.921875 -11.15625 C 49.753906 -8.863281 45.941406 -7.359375 41.484375 -6.640625 Z M 37.296875 -49.265625 C 36.273438 -55.585938 34.992188 -60.273438 33.453125 -63.328125 C 31.910156 -66.378906 30.472656 -67.945312 29.140625 -68.03125 C 27.679688 -68.09375 26.585938 -66.359375 25.859375 -62.828125 C 25.140625 -59.304688 25.328125 -54.15625 26.421875 -47.375 C 27.148438 -42.832031 28.234375 -39.519531 29.671875 -37.4375 C 31.117188 -35.363281 32.507812 -34.390625 33.84375 -34.515625 C 35.257812 -34.671875 36.375 -36.007812 37.1875 -38.53125 C 38.007812 -41.0625 38.046875 -44.640625 37.296875 -49.265625 Z M 37.296875 -49.265625 "/></g></g></g><g fill="#fff9d1" fill-opacity="1"><g transform="translate(185.571672, 163.65651)"><g><path d="M 46.34375 0.078125 C 40.5625 2.035156 34.722656 2.832031 28.828125 2.46875 C 12.085938 1.4375 4.273438 -8.117188 5.390625 -26.203125 C 5.785156 -32.554688 6.148438 -38.125 6.484375 -42.90625 C 6.816406 -47.6875 7.144531 -51.878906 7.46875 -55.484375 C 7.789062 -59.085938 8.117188 -62.25 8.453125 -64.96875 C 8.796875 -67.695312 9.160156 -70.128906 9.546875 -72.265625 C 9.929688 -74.398438 10.375 -76.4375 10.875 -78.375 C 11.945312 -81 13.070312 -83.035156 14.25 -84.484375 C 15.4375 -85.941406 16.882812 -86.972656 18.59375 -87.578125 C 20.3125 -88.191406 22.453125 -88.523438 25.015625 -88.578125 C 28.671875 -88.609375 31.519531 -88.015625 33.5625 -86.796875 C 35.601562 -85.578125 37.0625 -83.765625 37.9375 -81.359375 C 38.820312 -78.960938 39.3125 -75.988281 39.40625 -72.4375 C 39.5 -68.894531 39.40625 -64.800781 39.125 -60.15625 C 39.0625 -59.164062 38.90625 -57.644531 38.65625 -55.59375 C 38.40625 -53.550781 38.101562 -51.242188 37.75 -48.671875 C 37.40625 -46.097656 37.050781 -43.476562 36.6875 -40.8125 C 36.332031 -38.15625 36.019531 -35.679688 35.75 -33.390625 C 35.488281 -31.097656 35.300781 -29.203125 35.1875 -27.703125 C 35.082031 -26.210938 35.109375 -25.378906 35.265625 -25.203125 C 38.109375 -26.390625 40.675781 -26.929688 42.96875 -26.828125 C 45.269531 -26.734375 47.257812 -26.175781 48.9375 -25.15625 C 50.613281 -24.132812 51.960938 -22.78125 52.984375 -21.09375 C 54.015625 -19.414062 54.675781 -17.582031 54.96875 -15.59375 C 55.269531 -13.601562 55.160156 -11.609375 54.640625 -9.609375 C 54.117188 -7.617188 53.175781 -5.769531 51.8125 -4.0625 C 50.457031 -2.363281 48.632812 -0.984375 46.34375 0.078125 Z M 46.34375 0.078125 "/></g></g></g><g fill="#fff9d1" fill-opacity="1"><g transform="translate(227.716066, 163.611996)"><g><path d="M 62.578125 -23.203125 C 61.421875 -19.128906 60.238281 -15.234375 59.03125 -11.515625 C 57.820312 -7.796875 56.503906 -4.421875 55.078125 -1.390625 C 53.648438 1.640625 52.046875 4.175781 50.265625 6.21875 C 48.484375 8.257812 46.460938 9.664062 44.203125 10.4375 C 41.953125 11.207031 39.378906 11.179688 36.484375 10.359375 C 33.171875 9.421875 30.660156 8.117188 28.953125 6.453125 C 27.253906 4.796875 26.164062 2.84375 25.6875 0.59375 C 25.21875 -1.644531 25.191406 -4.148438 25.609375 -6.921875 C 26.035156 -9.703125 26.769531 -12.660156 27.8125 -15.796875 C 28.851562 -18.929688 30.015625 -22.207031 31.296875 -25.625 C 24.953125 -50.488281 23.054688 -67.40625 25.609375 -76.375 C 26.421875 -79.238281 27.859375 -81.460938 29.921875 -83.046875 C 31.984375 -84.640625 34.1875 -85.585938 36.53125 -85.890625 C 40.226562 -86.347656 43.128906 -85.960938 45.234375 -84.734375 C 47.347656 -83.515625 48.878906 -81.515625 49.828125 -78.734375 C 50.785156 -75.960938 51.40625 -72.515625 51.6875 -68.390625 C 51.96875 -64.273438 52.15625 -59.519531 52.25 -54.125 C 54.289062 -57.8125 56.296875 -61.28125 58.265625 -64.53125 C 60.234375 -67.78125 62.253906 -70.578125 64.328125 -72.921875 C 66.410156 -75.273438 68.660156 -76.953125 71.078125 -77.953125 C 73.492188 -78.960938 76.148438 -79.054688 79.046875 -78.234375 C 82.796875 -77.171875 85.671875 -75.53125 87.671875 -73.3125 C 89.671875 -71.09375 90.851562 -68.546875 91.21875 -65.671875 C 91.582031 -62.804688 91.203125 -59.859375 90.078125 -56.828125 C 89.109375 -54.148438 87.664062 -51.4375 85.75 -48.6875 C 83.84375 -45.945312 81.628906 -43.171875 79.109375 -40.359375 C 76.585938 -37.554688 73.910156 -34.726562 71.078125 -31.875 C 68.242188 -29.03125 65.410156 -26.140625 62.578125 -23.203125 Z M 62.578125 -23.203125 "/></g></g></g><g fill="#fff9d1" fill-opacity="1"><g transform="translate(284.934461, 179.691958)"><g><path d="M 35.734375 -21.296875 C 38.296875 -27.128906 40.210938 -33.128906 41.484375 -39.296875 C 42.753906 -45.472656 43.640625 -51.8125 44.140625 -58.3125 C 44.648438 -64.820312 44.992188 -71.484375 45.171875 -78.296875 C 45.359375 -80.785156 46.113281 -82.796875 47.4375 -84.328125 C 48.757812 -85.859375 50.429688 -86.925781 52.453125 -87.53125 C 54.484375 -88.144531 56.628906 -88.304688 58.890625 -88.015625 C 61.160156 -87.734375 63.359375 -87.003906 65.484375 -85.828125 C 67.609375 -84.648438 69.453125 -83.035156 71.015625 -80.984375 C 72.585938 -78.941406 73.65625 -76.472656 74.21875 -73.578125 C 74.789062 -70.679688 74.640625 -67.363281 73.765625 -63.625 C 72.796875 -58.300781 71.328125 -52.742188 69.359375 -46.953125 C 67.390625 -41.171875 65.035156 -35.46875 62.296875 -29.84375 C 59.566406 -24.21875 56.503906 -19 53.109375 -14.1875 C 51.691406 -12.144531 50.03125 -10.726562 48.125 -9.9375 C 46.21875 -9.15625 44.34375 -8.890625 42.5 -9.140625 C 40.664062 -9.390625 39.066406 -10.066406 37.703125 -11.171875 C 36.335938 -12.273438 35.425781 -13.691406 34.96875 -15.421875 C 34.507812 -17.160156 34.765625 -19.117188 35.734375 -21.296875 Z M 28.078125 14.328125 C 26.359375 13.453125 24.988281 12.210938 23.96875 10.609375 C 22.957031 9.003906 22.390625 7.253906 22.265625 5.359375 C 22.148438 3.472656 22.53125 1.675781 23.40625 -0.03125 C 24.300781 -1.789062 25.546875 -3.164062 27.140625 -4.15625 C 28.734375 -5.15625 30.472656 -5.710938 32.359375 -5.828125 C 34.253906 -5.941406 36.0625 -5.5625 37.78125 -4.6875 C 39.53125 -3.789062 40.898438 -2.546875 41.890625 -0.953125 C 42.890625 0.628906 43.453125 2.351562 43.578125 4.21875 C 43.703125 6.09375 43.316406 7.910156 42.421875 9.671875 C 41.546875 11.378906 40.304688 12.738281 38.703125 13.75 C 37.109375 14.769531 35.375 15.34375 33.5 15.46875 C 31.632812 15.601562 29.828125 15.222656 28.078125 14.328125 Z M 28.078125 14.328125 "/></g></g></g><path stroke-linecap="butt" transform="matrix(0.433907, -0.611739, 0.611739, 0.433907, 70.373239, 194.569235)" fill="none" stroke-linejoin="miter" d="M 33.122556 46.825976 C 33.118948 49.197551 32.75133 51.425032 32.01244 53.507185 C 31.28753 55.573038 30.233435 57.399855 28.851391 58.980377 C 27.483326 60.544597 25.854195 61.776767 23.96222 62.665377 C 22.070246 63.553987 19.954501 64.001082 17.623482 64.000636 C 14.863199 63.998163 12.497108 63.435129 10.514936 62.306048 C 8.530985 61.165458 6.911736 59.593776 5.642666 57.588533 C 4.387576 55.566988 3.45194 53.248615 2.836993 50.62615 C 2.225059 48.007934 1.917611 45.224829 1.918898 42.273822 C 1.916084 39.830177 2.119209 37.361784 2.52101 34.867408 C 2.934322 32.371253 3.554361 29.9775 4.382364 27.678887 C 5.211602 25.373012 6.25562 23.297923 7.521679 21.454853 C 8.804732 19.599731 10.294858 18.10857 12.000555 16.975343 C 14.109335 15.888254 16.4694 15.344489 19.092259 15.342268 C 20.683402 15.343899 22.211316 15.607486 23.68025 16.130014 C 25.157679 16.646515 26.533942 17.362484 27.801778 18.276685 C 29.067835 19.179376 30.150529 20.237669 31.052872 21.455812 C 31.969195 22.657654 32.645445 23.953154 33.084094 25.327788 C 33.533017 26.707905 33.683925 28.126997 33.533805 29.580814 C 33.400678 31.022579 32.898304 32.438904 32.033945 33.831024 C 31.477333 34.621729 30.788682 35.244285 29.961965 35.690196 C 29.134013 36.143368 28.263629 36.428687 27.347799 36.541905 C 26.443479 36.653345 25.55304 36.595302 24.676481 36.367777 C 23.798688 36.147513 23.018356 35.749566 22.325754 35.187224 C 21.64891 34.620091 21.142141 33.887624 20.802435 32.985576 L 20.802585 31.293316 L 19.845164 30.069542 C 17.247936 36.598704 15.950407 42.097435 15.949564 46.561488 C 15.948773 47.532643 16.098743 48.320236 16.401252 48.935779 C 16.698971 49.535564 17.076071 49.932177 17.52954 50.121369 C 17.978217 50.294804 18.450655 50.240665 18.940827 49.950455 C 19.430998 49.660245 19.86629 49.121615 20.25821 48.332787 C 20.408478 47.93247 20.411294 47.630355 20.273919 47.427677 C 20.14929 47.215959 19.955454 47.059714 19.692412 46.958943 C 19.427592 46.846662 19.138518 46.7452 18.828203 46.658803 C 18.513097 46.556649 18.24472 46.421349 18.017047 46.244407 C 17.794857 46.05719 17.660101 45.795186 17.624288 45.456615 C 17.535127 44.223604 17.684703 43.300167 18.075487 42.671782 C 18.466272 42.043396 19.09199 41.593188 19.956891 41.318144 C 20.824262 41.028576 21.918368 40.833605 23.246469 40.734465 C 24.928899 40.594721 26.388793 40.555353 27.629164 40.620608 C 28.872005 40.67134 29.897497 40.901781 30.715915 41.317412 C 31.529541 41.717285 32.130461 42.357428 32.518675 43.23784 C 32.922647 44.113461 33.122113 45.312931 33.122556 46.825976 Z M 33.122556 46.825976 " stroke="#783d00" stroke-width="5.778345" stroke-opacity="1" stroke-miterlimit="4"/><path stroke-linecap="butt" transform="matrix(0.56609, -0.491978, 0.491978, 0.56609, 88.467339, 169.505569)" fill="none" stroke-linejoin="miter" d="M 20.748417 63.999639 C 17.913006 63.998883 15.327987 63.567098 12.996776 62.700355 C 10.662148 61.837542 8.670529 60.54829 7.015601 58.847807 C 5.370408 57.128184 4.134868 54.984836 3.312398 52.413833 C 2.858835 50.998389 2.520546 49.331207 2.2936 47.408871 C 2.06614 45.479187 1.947493 43.416358 1.93766 41.220383 C 1.924411 39.02834 2.005652 36.81491 2.181384 34.580094 C 2.356601 32.337931 2.601737 30.197935 2.913888 28.171384 C 3.240221 26.136456 3.635486 24.347747 4.098653 22.790562 C 4.39946 21.761611 4.938667 20.815643 5.719691 19.948725 C 6.507548 19.073944 7.409595 18.353608 8.425833 17.787715 C 9.442071 17.221822 10.444872 16.885767 11.433723 16.772201 C 12.827726 16.645024 14.032835 16.878114 15.045119 17.468054 C 16.072099 18.056965 16.870172 18.909264 17.435922 20.028884 C 18.012437 21.144059 18.302949 22.4454 18.300627 23.94077 C 18.29893 24.601734 18.226044 25.511348 18.074107 26.662778 C 17.926102 27.817626 17.74173 29.085776 17.531757 30.462784 C 17.318367 31.843723 17.104977 33.224663 16.887655 34.602185 C 16.677167 35.971846 16.494668 37.214022 16.345119 38.346826 C 16.194025 39.457587 16.118566 40.330462 16.118226 40.958104 C 16.117777 42.4275 16.325549 43.60173 16.742571 44.495487 C 17.155663 45.385829 17.68094 45.980346 18.322336 46.282456 C 18.971079 46.584051 19.629141 46.597027 20.296522 46.321385 C 20.959457 46.034978 21.554817 45.469031 22.079187 44.627474 C 22.622183 43.788304 22.978497 42.655784 23.152575 41.24068 C 23.129547 38.90903 23.128234 36.623854 23.153081 34.395915 C 23.191594 32.152251 23.297638 30.029381 23.475658 28.038069 C 23.659997 26.031546 23.935125 24.214334 24.301043 22.586431 C 24.689847 20.916315 25.268749 19.535617 26.030402 18.444851 C 26.80675 17.353056 27.687926 16.545577 28.662651 16.019511 C 29.654973 15.481136 30.667367 15.229322 31.711112 15.26697 C 32.765106 15.292824 33.76022 15.584925 34.704316 16.150106 C 35.641065 16.715802 36.456735 17.555794 37.147911 18.674012 C 37.849851 19.787785 38.326816 21.168363 38.57829 22.808399 C 39.07675 25.918959 39.313266 29.084786 39.291769 32.309295 C 39.266342 35.530388 38.988333 38.676876 38.465091 41.748245 C 37.952099 44.807819 37.182736 47.685991 36.1717 50.381729 C 35.163565 53.066188 33.918672 55.427579 32.426257 57.470346 C 30.945122 59.516016 29.229758 61.116608 27.272818 62.272637 C 25.326643 63.424221 23.155602 64.000855 20.748417 63.999639 Z M 20.748417 63.999639 " stroke="#783d00" stroke-width="5.778345" stroke-opacity="1" stroke-miterlimit="4"/><path stroke-linecap="butt" transform="matrix(0.672278, -0.332478, 0.332478, 0.672278, 115.924605, 146.528662)" fill="none" stroke-linejoin="miter" d="M 37.429405 39.095377 C 37.879135 41.804671 38.186295 44.402784 38.353194 46.885047 C 38.527071 49.364949 38.518414 51.649991 38.331842 53.730835 C 38.156865 55.799982 37.764111 57.604544 37.146604 59.146881 C 36.545411 60.691476 35.686479 61.887807 34.5675 62.740544 C 33.455446 63.579274 32.062056 63.999967 30.394308 64.000261 C 27.901996 63.999497 26.065893 63.318053 24.899954 61.95121 C 23.74566 60.584316 23.171331 58.679159 23.172299 56.233432 C 22.354561 56.195076 21.490392 56.191862 20.575173 56.233126 C 19.662263 56.269722 18.689017 56.357825 17.662412 56.495075 C 17.909858 57.686575 17.952139 58.834716 17.772942 59.937238 C 17.610059 61.042019 17.248684 62.031203 16.68184 62.90715 C 16.131311 63.785356 15.398299 64.480347 14.480496 64.996791 C 13.581317 65.510825 12.524952 65.766998 11.323046 65.765258 C 9.61805 65.770373 8.167641 65.401695 6.978897 64.680157 C 5.787793 63.951641 4.828442 62.954248 4.100842 61.687978 C 3.373243 60.421708 2.835785 58.958951 2.48149 57.302064 C 2.131865 55.647487 1.942467 53.880406 1.920274 51.998461 C 1.907419 50.121133 2.010871 48.208359 2.239969 46.264756 C 2.464348 44.307198 2.777481 42.405155 3.177059 40.563295 C 3.718262 38.082599 4.338831 35.641154 5.041127 33.245938 C 5.743422 30.850722 6.565199 28.613373 7.506457 26.533893 C 8.442996 24.440457 9.534361 22.597906 10.775885 21.00393 C 12.017408 19.409954 13.458441 18.164495 15.1036 17.258218 C 16.746399 16.344963 18.600811 15.884989 20.669195 15.885275 C 23.114922 15.886242 25.184781 16.224264 26.876462 16.90401 C 28.582047 17.567389 30.007191 18.551102 31.144916 19.857508 C 32.301264 21.161503 33.253922 22.759874 34.00756 24.65493 C 34.770433 26.531312 35.408729 28.683091 35.924756 31.105597 C 36.450069 33.521075 36.955518 36.1882 37.429405 39.095377 Z M 18.302098 44.028412 L 21.761034 44.024955 C 21.884788 42.494091 21.911285 40.56069 21.835806 38.210796 C 21.762686 35.86788 21.580612 33.110831 21.289583 29.93965 C 21.214194 29.210921 21.072407 28.745688 20.857245 28.546311 C 20.644391 28.342265 20.430246 28.37581 20.219426 28.637608 C 20.006247 28.892428 19.852061 29.321685 19.749941 29.939385 C 19.611795 30.841411 19.46718 31.862259 19.316095 33.001927 C 19.16496 34.129948 19.020904 35.278902 18.886236 36.44412 C 18.744591 37.611698 18.623624 38.713966 18.50938 39.755644 C 18.406731 40.785625 18.331433 41.678061 18.283536 42.444596 C 18.242617 43.208772 18.249574 43.735154 18.302098 44.028412 Z M 18.302098 44.028412 " stroke="#783d00" stroke-width="5.778345" stroke-opacity="1" stroke-miterlimit="4"/><path stroke-linecap="butt" transform="matrix(0.731392, -0.166029, 0.166029, 0.731392, 147.122719, 131.883023)" fill="none" stroke-linejoin="miter" d="M 33.741307 50.230963 C 33.744613 53.227926 33.122413 55.757106 31.880937 57.814575 C 30.654232 59.854034 28.925291 61.400284 26.70773 62.440393 C 24.50148 63.477729 21.899874 63.99805 18.902911 64.001356 C 16.696858 64.002614 14.690857 63.616675 12.882603 62.853699 C 11.077808 62.075486 9.492477 60.989256 8.125458 59.600088 C 6.759592 58.20584 5.611133 56.583221 4.681235 54.727151 C 3.770032 52.859303 3.071407 50.831418 2.594363 48.650881 C 2.13371 46.468723 1.906199 44.200628 1.918062 41.842669 C 1.916624 38.931583 2.093672 36.151809 2.44643 33.492035 C 2.806574 30.823255 3.377546 28.378582 4.154268 26.156862 C 4.933295 23.924984 5.960106 21.989692 7.240932 20.34706 C 8.53307 18.701654 10.099789 17.423007 11.942242 16.50604 C 13.78862 15.595305 15.949308 15.135119 18.433311 15.132867 C 20.248988 15.133788 21.994801 15.466003 23.659439 16.132288 C 25.327535 16.783334 26.826709 17.684441 28.155809 18.840686 C 29.486061 19.991852 30.546027 21.322 31.336861 22.826051 C 32.124921 24.31879 32.537406 25.913203 32.575468 27.604208 C 32.603937 28.796338 32.382845 29.95852 31.918422 31.086829 C 31.467616 32.202206 30.815921 33.143801 29.964491 33.906534 C 29.123219 34.671573 28.130885 35.113915 26.991416 35.239792 C 26.137966 35.32912 25.262083 35.258472 24.356381 35.036852 C 23.468222 34.808532 22.629204 34.457847 21.835401 33.978564 C 21.059141 33.492581 20.427372 32.911218 19.935015 32.233322 C 19.461354 31.543647 19.223609 30.779346 19.222931 29.935339 C 19.134597 29.35984 19.009149 28.99489 18.845434 28.845568 C 18.695337 28.683315 18.524267 28.660504 18.338458 28.773209 C 18.163959 28.883141 18.003794 29.071098 17.869272 29.334308 C 17.742136 29.588512 17.677102 29.851473 17.67925 30.124343 L 17.115407 43.289705 C 17.11738 45.586715 17.278464 47.182808 17.606511 48.090447 C 17.944249 48.978922 18.570163 49.233165 19.488179 48.859406 C 20.399495 48.468104 21.737744 47.490089 23.492767 45.923056 C 25.460367 44.195985 27.216693 43.211399 28.755514 42.973225 C 30.300566 42.731124 31.51684 43.231538 32.407794 44.459229 C 33.295975 45.675609 33.740864 47.597828 33.741307 50.230963 Z M 33.741307 50.230963 " stroke="#783d00" stroke-width="5.778345" stroke-opacity="1" stroke-miterlimit="4"/><path stroke-linecap="butt" transform="matrix(0.749938, 0.0096297, -0.0096297, 0.749938, 177.362498, 125.311427)" fill="none" stroke-linejoin="miter" d="M 37.427995 39.097011 C 37.879468 41.804979 38.188857 44.400179 38.350953 46.882678 C 38.528672 49.364976 38.521507 51.646506 38.329525 53.732476 C 38.158106 55.797347 37.759404 57.604699 37.148975 59.149122 C 36.543687 60.688271 35.684006 61.886908 34.569865 62.739825 C 33.455591 63.582326 32.059814 64.001324 30.393017 64.001891 C 27.897963 63.997468 26.066168 63.317806 24.902708 61.952424 C 23.749597 60.5817 23.173017 58.677487 23.172901 56.234579 C 22.354591 56.192999 21.489945 56.193684 20.578896 56.231426 C 19.66264 56.269236 18.689765 56.359859 17.660138 56.492882 C 17.909874 57.687691 17.950626 58.833095 17.77211 59.939645 C 17.609152 61.040787 17.246822 62.029895 16.68512 62.906971 C 16.133901 63.789122 15.397931 64.48092 14.482618 64.997923 C 13.577655 65.509585 12.528801 65.767865 11.320367 65.767755 C 9.617115 65.768791 8.169577 65.40193 6.977887 64.677588 C 5.78613 63.948038 4.825385 62.955083 4.100726 61.688241 C 3.370859 60.421466 2.836418 58.959458 2.48178 57.302416 C 2.132416 55.650516 1.943027 53.881968 1.918886 52.001915 C 1.90516 50.121728 2.010816 48.208755 2.235851 46.262997 C 2.465961 44.306756 2.774925 42.406799 3.178367 40.562925 C 3.719472 38.081815 4.339231 35.641364 5.042917 33.246715 C 5.741396 30.852133 6.561663 28.612249 7.503785 26.532273 C 8.445706 24.436673 9.536725 22.594388 10.776842 21.005418 C 12.016892 19.411239 13.459323 18.16345 15.104135 17.262048 C 16.743539 16.34509 18.602418 15.888893 20.67029 15.888384 C 23.113199 15.888268 25.185418 16.226273 26.876532 16.902532 C 28.583136 17.568175 30.007317 18.54997 31.14921 19.858333 C 32.301452 21.161355 33.254331 22.758627 34.007846 24.65015 C 34.771643 26.531123 35.40872 28.684579 35.924218 31.105243 C 36.450132 33.525774 36.953082 36.186202 37.427995 39.097011 Z M 18.302195 44.025277 L 21.760845 44.027744 C 21.887006 42.494748 21.914208 40.556739 21.837244 38.213784 C 21.76028 35.870829 21.579016 33.112512 21.293452 29.938834 C 21.216387 29.210596 21.069822 28.748898 20.858831 28.543257 C 20.647907 28.342824 20.434784 28.376813 20.219396 28.640017 C 20.003874 28.892805 19.847912 29.321926 19.746437 29.937863 C 19.612185 30.840703 19.469055 31.863459 19.31698 33.000922 C 19.164839 34.133177 19.023314 35.280922 18.881989 36.444291 C 18.745939 37.612801 18.619436 38.713474 18.507821 39.75666 C 18.406421 40.784088 18.334597 41.680917 18.281932 42.447282 C 18.244825 43.208238 18.251646 43.739444 18.302195 44.025277 Z M 18.302195 44.025277 " stroke="#783d00" stroke-width="5.778345" stroke-opacity="1" stroke-miterlimit="4"/><path stroke-linecap="butt" transform="matrix(0.718365, 0.215527, -0.215527, 0.718365, 213.408506, 126.210695)" fill="none" stroke-linejoin="miter" d="M 45.48027 56.718937 C 45.478805 58.12774 45.184002 59.374417 44.597358 60.463958 C 44.005726 61.554995 43.230505 62.450979 42.261719 63.154904 C 41.309895 63.842864 40.266772 64.280893 39.138836 64.472484 C 38.023871 64.671058 36.922867 64.571808 35.82934 64.171242 C 34.738806 63.780653 33.788446 63.05981 32.971776 62.005222 C 32.130661 60.941654 31.590362 59.847649 31.353874 58.733184 C 31.127363 57.615725 31.07296 56.473817 31.185678 55.308958 C 31.298396 54.144099 31.464493 52.957788 31.690453 51.753516 C 31.918408 50.53777 32.083006 49.292093 32.182751 48.011497 C 32.282496 46.730901 32.180199 45.429356 31.879352 44.100379 C 31.305695 45.958176 30.732535 47.690757 30.16935 49.311592 C 29.616142 50.929433 29.047464 52.35072 28.459825 53.581939 C 27.867697 54.798192 27.217693 55.749049 26.499838 56.437503 C 25.80044 57.114981 25.004254 57.451735 24.112778 57.452753 C 23.335043 57.452271 22.633628 57.162445 22.00554 56.573296 C 21.377452 55.984147 20.801242 55.205427 20.27691 54.237136 C 19.749585 53.258868 19.280126 52.16536 18.865539 50.946636 C 18.464422 49.718432 18.108202 48.476758 17.791892 47.22311 C 17.492542 45.953498 17.235599 44.752728 17.023055 43.609328 C 16.657926 45.491565 16.477875 47.30196 16.474423 49.048497 C 16.487931 50.779069 16.562299 52.404379 16.701018 53.917941 C 16.841234 55.436492 16.915097 56.806382 16.925601 58.037587 C 16.943089 59.255822 16.774495 60.306941 16.437779 61.19643 C 16.114533 62.07644 15.485974 62.754415 14.557093 63.22886 C 13.644674 63.703802 12.302725 63.943289 10.529749 63.942331 C 8.876999 63.943366 7.505602 63.522851 6.415557 62.680787 C 5.32202 61.845208 4.459949 60.657423 3.815876 59.12691 C 3.178289 57.59989 2.715798 55.786516 2.424911 53.693273 C 2.139012 51.598533 1.974833 49.293268 1.935865 46.770993 C 1.910366 44.239239 1.977153 41.543854 2.124754 38.682844 C 2.273851 35.826822 2.446892 32.887488 2.631905 29.879311 C 2.820911 27.011315 3.655961 24.574825 5.13506 22.581316 C 6.414118 20.827268 7.835863 19.585055 9.401793 18.859666 C 10.984684 18.118313 12.590037 17.941178 14.219349 18.333252 C 15.849158 18.708863 17.393676 19.724523 18.847913 21.38173 C 20.9038 23.684956 22.632456 27.217401 24.035878 31.96759 C 24.27379 29.824448 24.6903 27.823479 25.280419 25.966181 C 25.867544 24.098905 26.647238 22.456615 27.609522 21.042303 C 28.588768 19.612026 29.776048 18.494536 31.166375 17.691327 C 32.558199 16.893107 34.177016 16.488988 36.020832 16.490443 C 37.711495 16.488909 39.120306 16.87101 40.252255 17.63525 C 41.391187 18.386519 42.298651 19.435618 42.978139 20.776061 C 43.669102 22.118499 44.170499 23.680942 44.482331 25.46339 C 44.811125 27.229873 45.015703 29.126066 45.104049 31.160447 C 45.129516 32.278409 45.147007 33.659774 45.159516 35.314519 C 45.185494 36.959784 45.215467 38.745232 45.25093 40.67585 C 45.30485 42.595492 45.338318 44.537584 45.364304 46.509109 C 45.405255 48.476144 45.427746 50.345402 45.441754 52.113888 C 45.467735 53.867907 45.477248 55.403921 45.48027 56.718937 Z M 45.48027 56.718937 " stroke="#783d00" stroke-width="5.778345" stroke-opacity="1" stroke-miterlimit="4"/><path stroke-linecap="butt" transform="matrix(0.631801, 0.404138, -0.404138, 0.631801, 252.499178, 139.15584)" fill="none" stroke-linejoin="miter" d="M 21.482088 64.038047 C 18.397444 64.038881 15.648618 63.472491 13.241222 62.347652 C 10.834181 61.204038 8.780826 59.61779 7.092737 57.587683 C 5.397455 55.555996 4.116021 53.185394 3.236852 50.477103 C 2.357684 47.768812 1.919007 44.840585 1.920821 41.69242 C 1.918453 39.146654 2.153843 36.634285 2.612603 34.152152 C 3.090139 31.670374 3.792945 29.347454 4.719438 27.190586 C 5.663482 25.022491 6.815048 23.111164 8.181331 21.458186 C 9.549195 19.798013 11.119642 18.502874 12.903029 17.559961 C 14.680803 16.608273 16.663414 16.131465 18.846476 16.132343 C 21.214488 16.132389 23.411667 16.532297 25.429239 17.33768 C 27.461554 18.12745 29.278133 19.246882 30.884589 20.704751 C 32.488239 22.158232 33.842829 23.869949 34.945554 25.835516 C 36.051086 27.80547 36.882656 29.975397 37.447457 32.346879 C 38.012614 34.699585 38.261712 37.186452 38.197911 39.793091 C 38.137666 42.211975 37.888795 44.596947 37.445686 46.939232 C 37.00977 49.283098 36.35823 51.49285 35.492647 53.561295 C 34.637421 55.616932 33.559928 57.431416 32.254555 58.995971 C 30.950764 60.553331 29.40332 61.778111 27.609063 62.684699 C 25.830775 63.587254 23.786579 64.035445 21.482088 64.038047 Z M 22.854135 42.163887 C 22.849663 38.889906 22.581434 36.42146 22.043837 34.749772 C 21.516241 33.084052 20.923711 32.177064 20.256249 32.022837 C 19.530878 31.874738 18.836866 32.664901 18.1886 34.39649 C 17.536303 36.112109 17.21087 38.725353 17.207915 42.239029 C 17.206644 44.595458 17.4868 46.357628 18.036801 47.526763 C 18.602772 48.691867 19.221346 49.291608 19.899716 49.327569 C 20.630026 49.367402 21.296965 48.786221 21.912114 47.582799 C 22.538845 46.378151 22.853379 44.569449 22.854135 42.163887 Z M 22.854135 42.163887 " stroke="#783d00" stroke-width="5.778345" stroke-opacity="1" stroke-miterlimit="4"/><path stroke-linecap="butt" transform="matrix(0.531954, 0.528701, -0.528701, 0.531954, 280.227848, 157.809292)" fill="none" stroke-linejoin="miter" d="M 23.660043 62.589778 C 20.765372 63.770464 17.809911 64.358021 14.804699 64.356168 C 6.212575 64.35559 1.91783 59.724102 1.916793 50.458009 C 1.919437 47.194998 1.928182 44.344487 1.957781 41.899155 C 1.980014 39.4538 2.019746 37.306812 2.069634 35.4508 C 2.119522 33.594789 2.187112 31.970853 2.276099 30.57532 C 2.365109 29.172421 2.472069 27.920575 2.593309 26.816087 C 2.721915 25.711622 2.887191 24.658829 3.085465 23.654015 C 3.550056 22.274366 4.057914 21.196844 4.609039 20.421451 C 5.171225 19.642408 5.880091 19.070055 6.731943 18.708065 C 7.598527 18.346119 8.682025 18.106374 9.986109 17.992523 C 11.842662 17.865635 13.311445 18.08743 14.388786 18.654213 C 15.480903 19.206311 16.284766 20.081616 16.796679 21.2838 C 17.323346 22.478665 17.664945 23.974956 17.828819 25.780063 C 17.992694 27.58517 18.078336 29.680983 18.074709 32.063786 C 18.076822 32.57571 18.04127 33.360052 17.979113 34.413161 C 17.920673 35.455232 17.836013 36.640855 17.736192 37.966381 C 17.636349 39.299272 17.53646 40.646894 17.432833 42.012919 C 17.347607 43.382684 17.273736 44.653046 17.211195 45.831371 C 17.148655 47.009696 17.108821 47.989216 17.095389 48.76626 C 17.085673 49.532266 17.124885 49.955916 17.213002 50.044575 C 18.614692 49.327033 19.908484 48.966398 21.083364 48.951588 C 22.26196 48.925741 23.296146 49.153568 24.189617 49.631399 C 25.075767 50.094475 25.814039 50.741242 26.38603 51.567958 C 26.965431 52.379966 27.360375 53.294528 27.574533 54.315339 C 27.785064 55.317724 27.792983 56.337902 27.594596 57.379545 C 27.392559 58.410127 26.966062 59.377413 26.31506 60.296132 C 25.675162 61.196471 24.788933 61.959788 23.660043 62.589778 Z M 23.660043 62.589778 " stroke="#783d00" stroke-width="5.778345" stroke-opacity="1" stroke-miterlimit="4"/><path stroke-linecap="butt" transform="matrix(0.427354, 0.616335, -0.616335, 0.427354, 297.514555, 175.191303)" fill="none" stroke-linejoin="miter" d="M 20.087354 43.194688 C 20.012729 44.353478 19.929379 45.278055 19.842898 45.978634 C 19.755104 46.671966 19.717821 47.210185 19.728082 47.597572 C 19.75415 47.989582 19.855382 48.300612 20.033088 48.537912 C 20.219698 48.762371 20.525867 49.006352 20.955876 49.272821 C 22.094532 48.946877 23.159218 48.873861 24.148623 49.046526 C 25.151211 49.209318 25.979389 49.587085 26.636124 50.175547 C 27.285611 50.765321 27.661217 51.558139 27.761628 52.546753 C 27.898786 53.738306 27.749058 54.895724 27.309476 56.023285 C 26.871549 57.139318 26.210997 58.18338 25.333755 59.146911 C 24.456514 60.110442 23.431124 60.958574 22.249026 61.685372 C 21.071207 62.415137 19.819718 62.986077 18.487309 63.399503 C 17.159523 63.797121 15.826606 64.001045 14.482967 64.001061 C 12.315819 64.00048 10.476716 63.599912 8.972909 62.798042 C 7.464821 61.993205 6.23136 60.865421 5.268247 59.411723 C 4.300853 57.955057 3.560603 56.243926 3.047497 54.27833 C 2.533078 52.305486 2.202599 50.149627 2.05178 47.807785 C 1.899649 45.458694 1.879693 42.992103 1.993569 40.396481 C 2.116348 37.78802 2.3281 35.133506 2.611361 32.439845 C 2.901869 29.744871 3.226619 27.07364 3.592857 24.424838 C 4.15659 20.613712 5.249029 18.151548 6.865893 17.03538 L 17.019519 16.020259 C 17.900161 15.819631 18.743535 15.681891 19.561169 15.608697 C 20.390673 15.518382 21.194781 15.473835 21.987987 15.472433 C 23.567151 15.470941 24.855596 15.724197 25.844762 16.226266 C 26.845456 16.72999 27.541682 17.371185 27.931783 18.161378 C 28.333412 18.953226 28.448096 19.79329 28.268585 20.68288 C 28.107851 21.572813 27.661886 22.417082 26.932345 23.204159 C 26.207084 23.994204 25.196995 24.637458 23.90339 25.141169 C 22.624281 25.642255 21.079522 25.895766 19.260553 25.895767 C 19.135298 27.374371 19.00269 28.543659 18.864042 29.41088 C 18.73989 30.275475 18.66003 30.929943 18.623149 31.367036 C 18.597797 31.805784 18.670037 32.122064 18.845805 32.307316 C 19.034756 32.482696 19.371631 32.627548 19.863679 32.74056 C 21.001783 31.812135 22.48246 31.349406 24.301429 31.349405 C 25.266584 31.34681 26.16308 31.543783 26.989602 31.933078 C 27.83062 32.319748 28.498257 32.865066 28.985264 33.570343 C 29.470959 34.268372 29.685457 35.10159 29.624477 36.067029 C 29.626134 37.874471 29.221583 39.29885 28.418073 40.338856 C 27.616218 41.367334 26.499007 42.101096 25.073688 42.538831 C 23.65265 42.979533 21.992954 43.197715 20.087354 43.194688 Z M 20.087354 43.194688 " stroke="#783d00" stroke-width="5.778345" stroke-opacity="1" stroke-miterlimit="4"/><g fill="#f0983e" fill-opacity="1"><g transform="translate(109.524533, 222.339289)"><g><path d="M 3.875 -27.71875 C 5.320312 -26.6875 6.519531 -25.492188 7.46875 -24.140625 C 8.425781 -22.785156 9.085938 -21.347656 9.453125 -19.828125 C 9.828125 -18.316406 9.875 -16.785156 9.59375 -15.234375 C 9.3125 -13.691406 8.660156 -12.207031 7.640625 -10.78125 C 6.441406 -9.09375 5.066406 -7.882812 3.515625 -7.15625 C 1.960938 -6.4375 0.300781 -6.128906 -1.46875 -6.234375 C -3.25 -6.335938 -5.078125 -6.769531 -6.953125 -7.53125 C -8.828125 -8.300781 -10.664062 -9.320312 -12.46875 -10.59375 C -13.957031 -11.65625 -15.375 -12.851562 -16.71875 -14.1875 C -18.070312 -15.519531 -19.269531 -16.9375 -20.3125 -18.4375 C -21.363281 -19.9375 -22.179688 -21.476562 -22.765625 -23.0625 C -23.347656 -24.644531 -23.613281 -26.207031 -23.5625 -27.75 C -23.3125 -29.5 -22.613281 -31.179688 -21.46875 -32.796875 C -20.789062 -33.765625 -19.96875 -34.582031 -19 -35.25 C -18.039062 -35.925781 -17.007812 -36.453125 -15.90625 -36.828125 C -14.8125 -37.210938 -13.695312 -37.421875 -12.5625 -37.453125 C -11.425781 -37.484375 -10.335938 -37.335938 -9.296875 -37.015625 C -8.253906 -36.691406 -7.320312 -36.171875 -6.5 -35.453125 C -5.6875 -34.734375 -5.035156 -33.8125 -4.546875 -32.6875 C -4.304688 -32.007812 -4.226562 -31.320312 -4.3125 -30.625 C -4.394531 -29.925781 -4.597656 -29.269531 -4.921875 -28.65625 C -5.242188 -28.050781 -5.664062 -27.523438 -6.1875 -27.078125 C -6.707031 -26.640625 -7.285156 -26.332031 -7.921875 -26.15625 C -8.566406 -25.988281 -9.242188 -25.992188 -9.953125 -26.171875 L -11 -26.90625 L -12.15625 -26.84375 C -9.28125 -22.445312 -6.476562 -19.273438 -3.75 -17.328125 C -3.15625 -16.910156 -2.609375 -16.660156 -2.109375 -16.578125 C -1.609375 -16.492188 -1.203125 -16.550781 -0.890625 -16.75 C -0.578125 -16.945312 -0.398438 -17.257812 -0.359375 -17.6875 C -0.328125 -18.113281 -0.472656 -18.613281 -0.796875 -19.1875 C -0.972656 -19.457031 -1.148438 -19.597656 -1.328125 -19.609375 C -1.515625 -19.617188 -1.695312 -19.5625 -1.875 -19.4375 C -2.0625 -19.320312 -2.25 -19.191406 -2.4375 -19.046875 C -2.632812 -18.898438 -2.835938 -18.796875 -3.046875 -18.734375 C -3.253906 -18.671875 -3.476562 -18.703125 -3.71875 -18.828125 C -4.488281 -19.304688 -4.984375 -19.796875 -5.203125 -20.296875 C -5.421875 -20.804688 -5.425781 -21.390625 -5.21875 -22.046875 C -5.019531 -22.703125 -4.660156 -23.457031 -4.140625 -24.3125 C -3.484375 -25.394531 -2.875 -26.304688 -2.3125 -27.046875 C -1.75 -27.785156 -1.164062 -28.3125 -0.5625 -28.625 C 0.0390625 -28.945312 0.695312 -29.039062 1.40625 -28.90625 C 2.113281 -28.769531 2.9375 -28.375 3.875 -27.71875 Z M 3.875 -27.71875 "/></g></g></g><g fill="#f0983e" fill-opacity="1"><g transform="translate(119.95393, 205.735312)"><g><path d="M 11.734375 -10.203125 C 10.140625 -8.816406 8.46875 -7.789062 6.71875 -7.125 C 4.96875 -6.46875 3.207031 -6.21875 1.4375 -6.375 C -0.332031 -6.539062 -2.085938 -7.144531 -3.828125 -8.1875 C -4.785156 -8.769531 -5.796875 -9.550781 -6.859375 -10.53125 C -7.929688 -11.507812 -9.015625 -12.613281 -10.109375 -13.84375 C -11.203125 -15.070312 -12.25 -16.363281 -13.25 -17.71875 C -14.25 -19.070312 -15.15625 -20.398438 -15.96875 -21.703125 C -16.789062 -23.015625 -17.445312 -24.226562 -17.9375 -25.34375 C -18.28125 -26.082031 -18.441406 -26.882812 -18.421875 -27.75 C -18.410156 -28.625 -18.253906 -29.472656 -17.953125 -30.296875 C -17.660156 -31.128906 -17.265625 -31.816406 -16.765625 -32.359375 C -16.035156 -33.117188 -15.234375 -33.582031 -14.359375 -33.75 C -13.484375 -33.925781 -12.613281 -33.835938 -11.75 -33.484375 C -10.882812 -33.128906 -10.082031 -32.523438 -9.34375 -31.671875 C -9.019531 -31.296875 -8.613281 -30.742188 -8.125 -30.015625 C -7.644531 -29.296875 -7.125 -28.492188 -6.5625 -27.609375 C -6.007812 -26.722656 -5.457031 -25.835938 -4.90625 -24.953125 C -4.351562 -24.066406 -3.84375 -23.269531 -3.375 -22.5625 C -2.914062 -21.851562 -2.53125 -21.320312 -2.21875 -20.96875 C -1.5 -20.132812 -0.800781 -19.566406 -0.125 -19.265625 C 0.550781 -18.972656 1.144531 -18.898438 1.65625 -19.046875 C 2.164062 -19.191406 2.539062 -19.503906 2.78125 -19.984375 C 3.019531 -20.472656 3.082031 -21.085938 2.96875 -21.828125 C 2.851562 -22.578125 2.503906 -23.390625 1.921875 -24.265625 C 0.742188 -25.566406 -0.378906 -26.859375 -1.453125 -28.140625 C -2.535156 -29.429688 -3.519531 -30.6875 -4.40625 -31.90625 C -5.289062 -33.132812 -6.03125 -34.296875 -6.625 -35.390625 C -7.226562 -36.523438 -7.578125 -37.59375 -7.671875 -38.59375 C -7.773438 -39.59375 -7.675781 -40.484375 -7.375 -41.265625 C -7.082031 -42.054688 -6.628906 -42.695312 -6.015625 -43.1875 C -5.410156 -43.6875 -4.703125 -44.007812 -3.890625 -44.15625 C -3.085938 -44.300781 -2.210938 -44.226562 -1.265625 -43.9375 C -0.328125 -43.65625 0.617188 -43.109375 1.578125 -42.296875 C 3.390625 -40.773438 5.078125 -39.097656 6.640625 -37.265625 C 8.210938 -35.441406 9.601562 -33.53125 10.8125 -31.53125 C 12.03125 -29.53125 13.015625 -27.523438 13.765625 -25.515625 C 14.523438 -23.503906 14.984375 -21.550781 15.140625 -19.65625 C 15.304688 -17.757812 15.117188 -16.003906 14.578125 -14.390625 C 14.046875 -12.785156 13.097656 -11.390625 11.734375 -10.203125 Z M 11.734375 -10.203125 "/></g></g></g><g fill="#f0983e" fill-opacity="1"><g transform="translate(137.203195, 189.554481)"><g><path d="M 16.890625 -29.203125 C 18.085938 -27.515625 19.15625 -25.863281 20.09375 -24.25 C 21.039062 -22.644531 21.796875 -21.113281 22.359375 -19.65625 C 22.929688 -18.195312 23.269531 -16.847656 23.375 -15.609375 C 23.476562 -14.367188 23.289062 -13.28125 22.8125 -12.34375 C 22.34375 -11.40625 21.550781 -10.660156 20.4375 -10.109375 C 18.75 -9.273438 17.289062 -9.125 16.0625 -9.65625 C 14.832031 -10.195312 13.8125 -11.285156 13 -12.921875 C 12.4375 -12.679688 11.851562 -12.394531 11.25 -12.0625 C 10.644531 -11.726562 10.015625 -11.347656 9.359375 -10.921875 C 9.941406 -10.203125 10.359375 -9.441406 10.609375 -8.640625 C 10.859375 -7.847656 10.941406 -7.0625 10.859375 -6.28125 C 10.773438 -5.5 10.515625 -4.785156 10.078125 -4.140625 C 9.640625 -3.492188 9.019531 -2.972656 8.21875 -2.578125 C 7.0625 -2.015625 5.960938 -1.78125 4.921875 -1.875 C 3.878906 -1.96875 2.898438 -2.316406 1.984375 -2.921875 C 1.078125 -3.523438 0.234375 -4.328125 -0.546875 -5.328125 C -1.335938 -6.328125 -2.050781 -7.453125 -2.6875 -8.703125 C -3.332031 -9.960938 -3.90625 -11.285156 -4.40625 -12.671875 C -4.90625 -14.054688 -5.320312 -15.4375 -5.65625 -16.8125 C -6.125 -18.664062 -6.515625 -20.515625 -6.828125 -22.359375 C -7.148438 -24.203125 -7.34375 -25.976562 -7.40625 -27.6875 C -7.46875 -29.40625 -7.347656 -31.003906 -7.046875 -32.484375 C -6.742188 -33.972656 -6.191406 -35.296875 -5.390625 -36.453125 C -4.585938 -37.617188 -3.492188 -38.546875 -2.109375 -39.234375 C -0.460938 -40.046875 1.039062 -40.503906 2.40625 -40.609375 C 3.78125 -40.722656 5.066406 -40.53125 6.265625 -40.03125 C 7.460938 -39.539062 8.628906 -38.785156 9.765625 -37.765625 C 10.910156 -36.742188 12.0625 -35.507812 13.21875 -34.0625 C 14.375 -32.613281 15.597656 -30.992188 16.890625 -29.203125 Z M 5.65625 -19.5 L 8 -20.65625 C 7.570312 -21.726562 6.941406 -23.039062 6.109375 -24.59375 C 5.273438 -26.144531 4.234375 -27.941406 2.984375 -29.984375 C 2.703125 -30.441406 2.453125 -30.703125 2.234375 -30.765625 C 2.023438 -30.828125 1.890625 -30.738281 1.828125 -30.5 C 1.765625 -30.257812 1.804688 -29.914062 1.953125 -29.46875 C 2.160156 -28.8125 2.398438 -28.078125 2.671875 -27.265625 C 2.953125 -26.460938 3.238281 -25.644531 3.53125 -24.8125 C 3.832031 -23.988281 4.117188 -23.207031 4.390625 -22.46875 C 4.660156 -21.726562 4.90625 -21.09375 5.125 -20.5625 C 5.351562 -20.039062 5.53125 -19.6875 5.65625 -19.5 Z M 5.65625 -19.5 "/></g></g></g><g fill="#f0983e" fill-opacity="1"><g transform="translate(157.748553, 178.69212)"><g><path d="M 22.390625 -15.671875 C 22.878906 -13.472656 22.84375 -11.519531 22.28125 -9.8125 C 21.726562 -8.101562 20.726562 -6.6875 19.28125 -5.5625 C 17.832031 -4.445312 16.015625 -3.640625 13.828125 -3.140625 C 12.210938 -2.773438 10.675781 -2.722656 9.21875 -2.984375 C 7.769531 -3.242188 6.429688 -3.765625 5.203125 -4.546875 C 3.972656 -5.335938 2.867188 -6.335938 1.890625 -7.546875 C 0.910156 -8.765625 0.0664062 -10.132812 -0.640625 -11.65625 C -1.347656 -13.175781 -1.890625 -14.796875 -2.265625 -16.515625 C -2.753906 -18.640625 -3.09375 -20.707031 -3.28125 -22.71875 C -3.46875 -24.726562 -3.457031 -26.613281 -3.25 -28.375 C -3.039062 -30.132812 -2.601562 -31.722656 -1.9375 -33.140625 C -1.269531 -34.554688 -0.34375 -35.75 0.84375 -36.71875 C 2.039062 -37.6875 3.546875 -38.378906 5.359375 -38.796875 C 6.691406 -39.097656 8.023438 -39.144531 9.359375 -38.9375 C 10.691406 -38.738281 11.9375 -38.328125 13.09375 -37.703125 C 14.25 -37.078125 15.238281 -36.285156 16.0625 -35.328125 C 16.894531 -34.367188 17.46875 -33.269531 17.78125 -32.03125 C 17.988281 -31.15625 18.019531 -30.269531 17.875 -29.375 C 17.726562 -28.476562 17.410156 -27.679688 16.921875 -26.984375 C 16.429688 -26.296875 15.78125 -25.8125 14.96875 -25.53125 C 14.351562 -25.3125 13.703125 -25.210938 13.015625 -25.234375 C 12.328125 -25.253906 11.648438 -25.375 10.984375 -25.59375 C 10.328125 -25.8125 9.765625 -26.128906 9.296875 -26.546875 C 8.835938 -26.972656 8.539062 -27.488281 8.40625 -28.09375 C 8.25 -28.5 8.097656 -28.75 7.953125 -28.84375 C 7.816406 -28.945312 7.6875 -28.9375 7.5625 -28.8125 C 7.4375 -28.695312 7.351562 -28.535156 7.3125 -28.328125 C 7.269531 -28.117188 7.269531 -27.914062 7.3125 -27.71875 L 9.078125 -17.984375 C 9.453125 -16.304688 9.832031 -15.164062 10.21875 -14.5625 C 10.613281 -13.96875 11.117188 -13.882812 11.734375 -14.3125 C 12.347656 -14.75 13.164062 -15.679688 14.1875 -17.109375 C 15.332031 -18.703125 16.453125 -19.710938 17.546875 -20.140625 C 18.640625 -20.578125 19.609375 -20.421875 20.453125 -19.671875 C 21.304688 -18.929688 21.953125 -17.597656 22.390625 -15.671875 Z M 22.390625 -15.671875 "/></g></g></g><g fill="#f0983e" fill-opacity="1"><g transform="translate(176.746198, 173.307469)"><g><path d="M 28.3125 -18.328125 C 28.625 -16.285156 28.832031 -14.332031 28.9375 -12.46875 C 29.039062 -10.601562 29.007812 -8.894531 28.84375 -7.34375 C 28.6875 -5.789062 28.375 -4.4375 27.90625 -3.28125 C 27.445312 -2.132812 26.789062 -1.25 25.9375 -0.625 C 25.09375 0 24.046875 0.304688 22.796875 0.296875 C 20.921875 0.265625 19.554688 -0.265625 18.703125 -1.296875 C 17.847656 -2.335938 17.429688 -3.773438 17.453125 -5.609375 C 16.847656 -5.640625 16.195312 -5.644531 15.5 -5.625 C 14.8125 -5.601562 14.082031 -5.550781 13.3125 -5.46875 C 13.5 -4.5625 13.519531 -3.695312 13.375 -2.875 C 13.226562 -2.050781 12.941406 -1.3125 12.515625 -0.65625 C 12.097656 0 11.546875 0.515625 10.859375 0.890625 C 10.171875 1.265625 9.378906 1.445312 8.484375 1.4375 C 7.203125 1.414062 6.117188 1.125 5.234375 0.5625 C 4.347656 0.0078125 3.640625 -0.738281 3.109375 -1.6875 C 2.578125 -2.644531 2.1875 -3.75 1.9375 -5 C 1.6875 -6.25 1.5625 -7.578125 1.5625 -8.984375 C 1.5625 -10.398438 1.65625 -11.832031 1.84375 -13.28125 C 2.03125 -14.738281 2.285156 -16.160156 2.609375 -17.546875 C 3.035156 -19.410156 3.523438 -21.234375 4.078125 -23.015625 C 4.628906 -24.804688 5.265625 -26.476562 5.984375 -28.03125 C 6.710938 -29.59375 7.550781 -30.960938 8.5 -32.140625 C 9.445312 -33.328125 10.539062 -34.253906 11.78125 -34.921875 C 13.019531 -35.585938 14.414062 -35.910156 15.96875 -35.890625 C 17.800781 -35.867188 19.347656 -35.597656 20.609375 -35.078125 C 21.878906 -34.554688 22.9375 -33.800781 23.78125 -32.8125 C 24.632812 -31.820312 25.332031 -30.613281 25.875 -29.1875 C 26.425781 -27.757812 26.890625 -26.132812 27.265625 -24.3125 C 27.640625 -22.5 27.988281 -20.503906 28.3125 -18.328125 Z M 13.90625 -14.796875 L 16.515625 -14.765625 C 16.628906 -15.910156 16.664062 -17.363281 16.625 -19.125 C 16.59375 -20.894531 16.484375 -22.96875 16.296875 -25.34375 C 16.253906 -25.882812 16.148438 -26.226562 15.984375 -26.375 C 15.828125 -26.53125 15.664062 -26.515625 15.5 -26.328125 C 15.34375 -26.148438 15.222656 -25.828125 15.140625 -25.359375 C 15.023438 -24.679688 14.90625 -23.914062 14.78125 -23.0625 C 14.664062 -22.21875 14.550781 -21.359375 14.4375 -20.484375 C 14.320312 -19.609375 14.21875 -18.78125 14.125 -18 C 14.03125 -17.226562 13.960938 -16.554688 13.921875 -15.984375 C 13.890625 -15.421875 13.882812 -15.023438 13.90625 -14.796875 Z M 13.90625 -14.796875 "/></g></g></g><g fill="#f0983e" fill-opacity="1"><g transform="translate(199.614776, 172.186044)"><g><path d="M 34.25 4.5625 C 33.9375 5.570312 33.453125 6.40625 32.796875 7.0625 C 32.140625 7.726562 31.390625 8.207031 30.546875 8.5 C 29.703125 8.789062 28.851562 8.882812 28 8.78125 C 27.15625 8.675781 26.382812 8.363281 25.6875 7.84375 C 25 7.332031 24.472656 6.609375 24.109375 5.671875 C 23.742188 4.710938 23.59375 3.8125 23.65625 2.96875 C 23.726562 2.125 23.929688 1.289062 24.265625 0.46875 C 24.609375 -0.34375 24.988281 -1.15625 25.40625 -1.96875 C 25.832031 -2.789062 26.21875 -3.648438 26.5625 -4.546875 C 26.914062 -5.453125 27.117188 -6.410156 27.171875 -7.421875 C 26.359375 -6.203125 25.578125 -5.070312 24.828125 -4.03125 C 24.085938 -3 23.375 -2.109375 22.6875 -1.359375 C 22.007812 -0.617188 21.335938 -0.078125 20.671875 0.265625 C 20.015625 0.609375 19.363281 0.679688 18.71875 0.484375 C 18.175781 0.328125 17.738281 -0.0234375 17.40625 -0.578125 C 17.082031 -1.140625 16.835938 -1.828125 16.671875 -2.640625 C 16.503906 -3.453125 16.40625 -4.34375 16.375 -5.3125 C 16.34375 -6.28125 16.351562 -7.25 16.40625 -8.21875 C 16.457031 -9.195312 16.53125 -10.113281 16.625 -10.96875 C 15.945312 -9.695312 15.425781 -8.4375 15.0625 -7.1875 C 14.695312 -5.9375 14.398438 -4.75 14.171875 -3.625 C 13.941406 -2.507812 13.703125 -1.515625 13.453125 -0.640625 C 13.203125 0.234375 12.859375 0.953125 12.421875 1.515625 C 11.992188 2.085938 11.394531 2.441406 10.625 2.578125 C 9.863281 2.722656 8.847656 2.601562 7.578125 2.21875 C 6.398438 1.863281 5.503906 1.269531 4.890625 0.4375 C 4.285156 -0.394531 3.914062 -1.429688 3.78125 -2.671875 C 3.65625 -3.910156 3.71875 -5.3125 3.96875 -6.875 C 4.21875 -8.445312 4.597656 -10.140625 5.109375 -11.953125 C 5.628906 -13.773438 6.25 -15.695312 6.96875 -17.71875 C 7.6875 -19.75 8.445312 -21.828125 9.25 -23.953125 C 10 -25.960938 11.125 -27.523438 12.625 -28.640625 C 13.914062 -29.628906 15.203125 -30.21875 16.484375 -30.40625 C 17.773438 -30.59375 18.960938 -30.375 20.046875 -29.75 C 21.140625 -29.125 22.03125 -28.0625 22.71875 -26.5625 C 23.695312 -24.46875 24.179688 -21.554688 24.171875 -17.828125 C 24.804688 -19.316406 25.535156 -20.664062 26.359375 -21.875 C 27.179688 -23.082031 28.09375 -24.09375 29.09375 -24.90625 C 30.101562 -25.726562 31.191406 -26.273438 32.359375 -26.546875 C 33.535156 -26.816406 34.785156 -26.753906 36.109375 -26.359375 C 37.328125 -25.992188 38.257812 -25.414062 38.90625 -24.625 C 39.5625 -23.832031 39.988281 -22.882812 40.1875 -21.78125 C 40.382812 -20.675781 40.410156 -19.453125 40.265625 -18.109375 C 40.117188 -16.765625 39.859375 -15.351562 39.484375 -13.875 C 39.253906 -13.070312 38.96875 -12.078125 38.625 -10.890625 C 38.28125 -9.703125 37.914062 -8.410156 37.53125 -7.015625 C 37.15625 -5.628906 36.765625 -4.222656 36.359375 -2.796875 C 35.960938 -1.378906 35.582031 -0.0351562 35.21875 1.234375 C 34.851562 2.515625 34.53125 3.625 34.25 4.5625 Z M 34.25 4.5625 "/></g></g></g><g fill="#f0983e" fill-opacity="1"><g transform="translate(226.634373, 179.591118)"><g><path d="M 13.5625 8.71875 C 11.601562 7.46875 10.09375 5.992188 9.03125 4.296875 C 7.96875 2.609375 7.3125 0.78125 7.0625 -1.1875 C 6.820312 -3.15625 6.972656 -5.171875 7.515625 -7.234375 C 8.054688 -9.296875 8.960938 -11.320312 10.234375 -13.3125 C 11.265625 -14.914062 12.429688 -16.410156 13.734375 -17.796875 C 15.035156 -19.179688 16.414062 -20.367188 17.875 -21.359375 C 19.332031 -22.347656 20.828125 -23.085938 22.359375 -23.578125 C 23.898438 -24.066406 25.421875 -24.25 26.921875 -24.125 C 28.421875 -24 29.863281 -23.5 31.25 -22.625 C 32.75 -21.65625 33.976562 -20.507812 34.9375 -19.1875 C 35.894531 -17.875 36.585938 -16.4375 37.015625 -14.875 C 37.441406 -13.3125 37.601562 -11.679688 37.5 -9.984375 C 37.40625 -8.296875 37.054688 -6.59375 36.453125 -4.875 C 35.847656 -3.15625 35.003906 -1.484375 33.921875 0.140625 C 32.898438 1.648438 31.773438 3.054688 30.546875 4.359375 C 29.328125 5.660156 28.03125 6.789062 26.65625 7.75 C 25.28125 8.707031 23.863281 9.414062 22.40625 9.875 C 20.957031 10.332031 19.484375 10.484375 17.984375 10.328125 C 16.484375 10.179688 15.007812 9.644531 13.5625 8.71875 Z M 23.265625 -4.5625 C 24.585938 -6.632812 25.414062 -8.300781 25.75 -9.5625 C 26.082031 -10.832031 26.070312 -11.648438 25.71875 -12.015625 C 25.320312 -12.390625 24.566406 -12.164062 23.453125 -11.34375 C 22.347656 -10.53125 21.085938 -9.015625 19.671875 -6.796875 C 18.710938 -5.304688 18.171875 -4.082031 18.046875 -3.125 C 17.929688 -2.164062 18.078125 -1.53125 18.484375 -1.21875 C 18.941406 -0.90625 19.609375 -1.003906 20.484375 -1.515625 C 21.359375 -2.023438 22.285156 -3.039062 23.265625 -4.5625 Z M 23.265625 -4.5625 "/></g></g></g><g fill="#f0983e" fill-opacity="1"><g transform="translate(246.391006, 191.854375)"><g><path d="M 13.34375 11.765625 C 11.175781 10.859375 9.289062 9.601562 7.6875 8 C 3.113281 3.46875 3.273438 -1.257812 8.171875 -6.1875 C 9.890625 -7.914062 11.40625 -9.421875 12.71875 -10.703125 C 14.03125 -11.992188 15.1875 -13.117188 16.1875 -14.078125 C 17.195312 -15.046875 18.097656 -15.878906 18.890625 -16.578125 C 19.679688 -17.273438 20.398438 -17.882812 21.046875 -18.40625 C 21.691406 -18.925781 22.332031 -19.40625 22.96875 -19.84375 C 23.945312 -20.3125 24.789062 -20.601562 25.5 -20.71875 C 26.207031 -20.84375 26.882812 -20.773438 27.53125 -20.515625 C 28.175781 -20.265625 28.875 -19.820312 29.625 -19.1875 C 30.6875 -18.269531 31.351562 -17.378906 31.625 -16.515625 C 31.90625 -15.648438 31.867188 -14.757812 31.515625 -13.84375 C 31.171875 -12.9375 30.5625 -11.957031 29.6875 -10.90625 C 28.8125 -9.863281 27.75 -8.707031 26.5 -7.4375 C 26.226562 -7.164062 25.796875 -6.765625 25.203125 -6.234375 C 24.617188 -5.710938 23.945312 -5.125 23.1875 -4.46875 C 22.4375 -3.8125 21.675781 -3.144531 20.90625 -2.46875 C 20.132812 -1.789062 19.414062 -1.15625 18.75 -0.5625 C 18.09375 0.03125 17.5625 0.53125 17.15625 0.9375 C 16.75 1.34375 16.539062 1.585938 16.53125 1.671875 C 17.65625 2.046875 18.535156 2.535156 19.171875 3.140625 C 19.804688 3.742188 20.234375 4.410156 20.453125 5.140625 C 20.679688 5.867188 20.734375 6.597656 20.609375 7.328125 C 20.484375 8.066406 20.210938 8.757812 19.796875 9.40625 C 19.378906 10.0625 18.835938 10.613281 18.171875 11.0625 C 17.515625 11.507812 16.773438 11.804688 15.953125 11.953125 C 15.128906 12.097656 14.257812 12.035156 13.34375 11.765625 Z M 13.34375 11.765625 "/></g></g></g><g fill="#f0983e" fill-opacity="1"><g transform="translate(258.069117, 202.541938)"><g><path d="M 21.40625 3.5 C 20.65625 3.9375 20.046875 4.273438 19.578125 4.515625 C 19.117188 4.765625 18.773438 4.976562 18.546875 5.15625 C 18.328125 5.332031 18.179688 5.523438 18.109375 5.734375 C 18.046875 5.941406 18.019531 6.238281 18.03125 6.625 C 18.71875 7.1875 19.21875 7.8125 19.53125 8.5 C 19.851562 9.1875 19.972656 9.851562 19.890625 10.5 C 19.804688 11.15625 19.488281 11.726562 18.9375 12.21875 C 18.25 12.8125 17.460938 13.210938 16.578125 13.421875 C 15.703125 13.628906 14.78125 13.671875 13.8125 13.546875 C 12.84375 13.421875 11.878906 13.144531 10.921875 12.71875 C 9.972656 12.300781 9.085938 11.769531 8.265625 11.125 C 7.453125 10.488281 6.757812 9.753906 6.1875 8.921875 C 5.257812 7.585938 4.71875 6.285156 4.5625 5.015625 C 4.414062 3.742188 4.582031 2.5 5.0625 1.28125 C 5.550781 0.0625 6.289062 -1.125 7.28125 -2.28125 C 8.28125 -3.4375 9.46875 -4.5625 10.84375 -5.65625 C 12.226562 -6.75 13.75 -7.8125 15.40625 -8.84375 C 17.0625 -9.882812 18.78125 -10.894531 20.5625 -11.875 C 22.34375 -12.851562 24.132812 -13.796875 25.9375 -14.703125 C 28.519531 -15.984375 30.5 -16.359375 31.875 -15.828125 L 36.859375 -10.03125 C 37.335938 -9.5625 37.78125 -9.09375 38.1875 -8.625 C 38.601562 -8.164062 38.976562 -7.691406 39.3125 -7.203125 C 39.988281 -6.222656 40.382812 -5.316406 40.5 -4.484375 C 40.613281 -3.648438 40.507812 -2.941406 40.1875 -2.359375 C 39.875 -1.773438 39.40625 -1.347656 38.78125 -1.078125 C 38.15625 -0.804688 37.441406 -0.722656 36.640625 -0.828125 C 35.847656 -0.941406 35.019531 -1.285156 34.15625 -1.859375 C 33.300781 -2.441406 32.484375 -3.296875 31.703125 -4.421875 C 30.742188 -3.867188 29.96875 -3.445312 29.375 -3.15625 C 28.789062 -2.863281 28.351562 -2.632812 28.0625 -2.46875 C 27.78125 -2.300781 27.617188 -2.117188 27.578125 -1.921875 C 27.546875 -1.734375 27.609375 -1.460938 27.765625 -1.109375 C 28.816406 -0.804688 29.726562 -0.0976562 30.5 1.015625 C 30.914062 1.617188 31.1875 2.253906 31.3125 2.921875 C 31.4375 3.597656 31.382812 4.242188 31.15625 4.859375 C 30.925781 5.472656 30.5 5.960938 29.875 6.328125 C 28.757812 7.097656 27.710938 7.457031 26.734375 7.40625 C 25.765625 7.351562 24.835938 6.984375 23.953125 6.296875 C 23.066406 5.609375 22.21875 4.675781 21.40625 3.5 Z M 21.40625 3.5 "/></g></g></g><path stroke-linecap="butt" transform="matrix(-0.735496, 0.146783, -0.146783, -0.735496, 82.03169, 251.296887)" fill="none" stroke-linejoin="miter" d="M 29.989814 123.066965 C 29.50316 114.567778 28.146326 106.277323 25.923401 98.20173 C 23.696378 90.093451 20.902475 82.031372 17.534546 74.024688 C 14.20031 65.98224 10.569822 57.854113 6.64717 49.646435 C 5.37421 46.577539 5.04515 43.728884 5.668167 41.112723 C 6.32285 38.49757 7.661009 36.210016 9.687755 34.251081 C 11.747184 32.288046 14.216407 30.799811 17.095422 29.786375 C 19.970339 28.740255 23.030379 28.283428 26.265328 28.413856 C 29.501286 28.512619 32.658876 29.2968 35.732991 30.765379 C 38.837752 32.240073 41.599646 34.527975 44.017653 37.63419 C 46.473453 40.737326 48.301455 44.77738 49.513914 49.746176 C 51.572922 56.647184 53.190912 64.13468 54.367883 72.208663 C 55.545863 80.250981 56.213191 88.456941 56.380082 96.828581 C 56.542874 105.167536 56.069188 113.209516 54.952896 120.958609 C 54.495635 124.261108 53.368061 126.95715 51.570172 129.046735 C 49.808036 131.143455 47.74431 132.595772 45.393296 133.411852 C 43.069848 134.196256 40.763509 134.362682 38.475298 133.906024 C 36.189115 133.412593 34.241788 132.285731 32.639443 130.521348 C 31.070791 128.7212 30.191326 126.235383 29.989814 123.066965 Z M 42.499368 170.00097 C 39.913086 169.999996 37.527765 169.364627 35.339316 168.088734 C 33.178433 166.781164 31.463743 165.047471 30.190137 162.886634 C 28.911413 160.698221 28.274078 158.329769 28.274043 155.775151 C 28.275006 153.162312 28.915483 150.77801 30.191387 148.616119 C 31.466272 146.459335 33.179535 144.740567 35.340372 143.466962 C 37.527766 142.193345 39.917668 141.55498 42.498842 141.554934 C 45.111682 141.555896 47.485769 142.194335 49.610887 143.468211 C 51.767671 144.743096 53.485419 146.461467 54.760044 148.617196 C 56.066334 150.773934 56.721042 153.161786 56.71906 155.779733 C 56.720114 158.329243 56.066352 160.700271 54.758794 162.887712 C 53.48391 165.044495 51.767589 166.778586 49.609832 168.089983 C 47.486787 169.360509 45.112208 170.001932 42.499368 170.00097 Z M 42.499368 170.00097 " stroke="#807a52" stroke-width="15.066375" stroke-opacity="1" stroke-miterlimit="4"/><g fill="#f0983e" fill-opacity="1"><g transform="translate(56.733816, 126.331333)"><g><path d="M -14.84375 38.875 C -13.21875 45.03125 -10.988281 50.921875 -8.15625 56.546875 C -5.332031 62.179688 -2.101562 67.707031 1.53125 73.125 C 5.164062 78.539062 9.03125 83.972656 13.125 89.421875 C 14.507812 91.492188 15.160156 93.539062 15.078125 95.5625 C 14.992188 97.59375 14.34375 99.472656 13.125 101.203125 C 11.90625 102.941406 10.316406 104.398438 8.359375 105.578125 C 6.398438 106.753906 4.222656 107.539062 1.828125 107.9375 C -0.566406 108.34375 -3.007812 108.226562 -5.5 107.59375 C -8 106.957031 -10.367188 105.675781 -12.609375 103.75 C -14.847656 101.820312 -16.78125 99.125 -18.40625 95.65625 C -20.957031 90.875 -23.253906 85.601562 -25.296875 79.84375 C -27.335938 74.082031 -29.03125 68.148438 -30.375 62.046875 C -31.726562 55.941406 -32.554688 49.945312 -32.859375 44.0625 C -33.023438 41.582031 -32.601562 39.441406 -31.59375 37.640625 C -30.59375 35.835938 -29.289062 34.460938 -27.6875 33.515625 C -26.082031 32.578125 -24.398438 32.117188 -22.640625 32.140625 C -20.890625 32.160156 -19.296875 32.707031 -17.859375 33.78125 C -16.429688 34.863281 -15.425781 36.5625 -14.84375 38.875 Z M -30.90625 6.171875 C -29.019531 5.796875 -27.179688 5.914062 -25.390625 6.53125 C -23.609375 7.15625 -22.082031 8.171875 -20.8125 9.578125 C -19.550781 10.992188 -18.726562 12.648438 -18.34375 14.546875 C -17.957031 16.472656 -18.082031 18.316406 -18.71875 20.078125 C -19.351562 21.847656 -20.375 23.367188 -21.78125 24.640625 C -23.195312 25.910156 -24.847656 26.734375 -26.734375 27.109375 C -28.660156 27.492188 -30.503906 27.367188 -32.265625 26.734375 C -34.035156 26.097656 -35.550781 25.082031 -36.8125 23.6875 C -38.070312 22.300781 -38.894531 20.644531 -39.28125 18.71875 C -39.664062 16.820312 -39.539062 14.976562 -38.90625 13.1875 C -38.28125 11.40625 -37.269531 9.882812 -35.875 8.625 C -34.488281 7.375 -32.832031 6.554688 -30.90625 6.171875 Z M -30.90625 6.171875 "/></g></g></g></svg>